<?xml version="1.0" encoding="utf-8"?>
<!-- Generator: Adobe Illustrator 22.1.0, SVG Export Plug-In . SVG Version: 6.00 Build 0)  -->
<svg version="1.1" id="Слой_1" xmlns="http://www.w3.org/2000/svg" xmlns:xlink="http://www.w3.org/1999/xlink" x="0px" y="0px"
	 viewBox="0 0 485.5 485.5" style="enable-background:new 0 0 485.5 485.5;" xml:space="preserve">
<style type="text/css">
	.st0{fill:url(#SVGID_1_);}
	.st1{clip-path:url(#SVGID_3_);}
	.st2{fill:url(#SVGID_4_);}
	.st3{fill:#FF9F8F;}
	.st4{fill:#FD7D91;}
	.st5{fill:#FFAE9E;}
	.st6{opacity:0.8;fill:url(#SVGID_5_);enable-background:new    ;}
	.st7{opacity:0.8;fill:url(#SVGID_6_);enable-background:new    ;}
	.st8{fill:#FFF4F4;stroke:#0C0C0C;stroke-width:1.17;stroke-miterlimit:10;}
	.st9{fill:#044784;}
	.st10{fill:none;stroke:#B5232E;stroke-width:0.95;stroke-miterlimit:10;}
	.st11{fill:#0C0C0C;}
	.st12{fill:#FCCBC3;}
	.st13{font-family:'MyriadPro-Regular';}
	.st14{font-size:10.41px;}
	.st15{fill:#5DADFF;}
	.st16{fill:none;stroke:#FFFFFF;stroke-width:0.88;stroke-miterlimit:10;}
	.st17{fill:none;stroke:#FC8D7E;stroke-width:0.87;stroke-miterlimit:10;}
	.st18{fill:#FFD974;}
	.st19{fill:#FDE19F;}
	.st20{fill:none;stroke:#0C0C0C;stroke-width:1.17;stroke-miterlimit:10;}
	.st21{fill:none;stroke:#0C0C0C;stroke-width:5.53;stroke-miterlimit:10;}
	.st22{fill:none;stroke:#FFFFFF;stroke-width:1.01;stroke-miterlimit:10;}
	.st23{fill:none;stroke:#B5232E;stroke-width:0.87;stroke-miterlimit:10;}
	.st24{fill:#98D3F4;}
	.st25{fill:none;stroke:#FFFFFF;stroke-width:5;stroke-miterlimit:10;}
</style>
<linearGradient id="SVGID_1_" gradientUnits="userSpaceOnUse" x1="-14076.7559" y1="578.6607" x2="-13733.4648" y2="235.3794" gradientTransform="matrix(-1 0 0 -1 -13662.3701 649.76)">
	<stop  offset="0" style="stop-color:#00FDFF"/>
	<stop  offset="4.000000e-02" style="stop-color:#22C3FF"/>
	<stop  offset="8.000000e-02" style="stop-color:#4190FF"/>
	<stop  offset="0.12" style="stop-color:#5B64FF"/>
	<stop  offset="0.16" style="stop-color:#7040FF"/>
	<stop  offset="0.2" style="stop-color:#8124FF"/>
	<stop  offset="0.24" style="stop-color:#8D10FF"/>
	<stop  offset="0.28" style="stop-color:#9404FF"/>
	<stop  offset="0.32" style="stop-color:#9600FF"/>
	<stop  offset="0.65" style="stop-color:#00FDFF"/>
	<stop  offset="0.69" style="stop-color:#22C3FF"/>
	<stop  offset="0.73" style="stop-color:#4190FF"/>
	<stop  offset="0.78" style="stop-color:#5B64FF"/>
	<stop  offset="0.82" style="stop-color:#7040FF"/>
	<stop  offset="0.87" style="stop-color:#8124FF"/>
	<stop  offset="0.91" style="stop-color:#8D10FF"/>
	<stop  offset="0.96" style="stop-color:#9404FF"/>
	<stop  offset="1" style="stop-color:#9600FF"/>
</linearGradient>
<circle class="st0" cx="242.7" cy="242.7" r="242.7"/>
<g>
	<defs>
		<circle id="SVGID_2_" cx="242.7" cy="242.7" r="216"/>
	</defs>
	<clipPath id="SVGID_3_">
		<use xlink:href="#SVGID_2_"  style="overflow:visible;"/>
	</clipPath>
	<g class="st1">
		
			<linearGradient id="SVGID_4_" gradientUnits="userSpaceOnUse" x1="-14057.8281" y1="559.7436" x2="-13752.3916" y2="254.2965" gradientTransform="matrix(-1 0 0 -1 -13662.3701 649.76)">
			<stop  offset="0" style="stop-color:#D10F75"/>
			<stop  offset="7.000000e-02" style="stop-color:#B0106E"/>
			<stop  offset="0.19" style="stop-color:#821265"/>
			<stop  offset="0.31" style="stop-color:#5A145D"/>
			<stop  offset="0.44" style="stop-color:#391657"/>
			<stop  offset="0.57" style="stop-color:#201751"/>
			<stop  offset="0.7" style="stop-color:#0E174E"/>
			<stop  offset="0.84" style="stop-color:#03184C"/>
			<stop  offset="1" style="stop-color:#00184B"/>
		</linearGradient>
		<circle class="st2" cx="242.7" cy="242.7" r="216"/>
		<path class="st3" d="M292.7,211.2c2.8,2.1,9.4,6.3,17.4,5.2c15.2-2.1,26-22.7,20.4-34.3c-2.8-5.5-9.9-10.3-15.6-10.3
			c-1.6,0-3.2,0.1-4.8,0.4c-2.8,0.5-5.2,0.8-7.8,2.6c-1.4,0.9-2.6,2.1-3.5,3.4C296.6,189.2,294.7,200.1,292.7,211.2z"/>
		<path class="st4" d="M239.1,294.9v-45.6c2.5,0.8,5.1,1.5,7.9,2.2c4,1,7.7,1.5,11.2,2.1c-0.5,13.8-1,27.6-1.5,41.3
			c-3,1.3-6.3,1.9-9.6,1.8C244.2,296.4,241.6,295.8,239.1,294.9z"/>
		<path class="st5" d="M239.1,312.7v-46c2.3,5.7,7.6,8.7,12.1,7.9c2.5-0.6,4.7-2.1,6.1-4.3c-0.3,13.9-0.5,27.7-0.8,41.6
			c-1.4,0.7-3,1.3-4.5,1.7c-1.9,0.5-3.8,0.7-5.8,0.6C243.7,313.9,241.3,313.4,239.1,312.7z"/>
		<path class="st4" d="M306,198.9c5.5-4.5,10.9-9.1,16.4-13.8c2.6,2.9,1.8,7.2-1.9,10.3C316.5,198.9,311.1,200.2,306,198.9z"/>
		<path class="st5" d="M203.1,222c2.6,6.5,9.4,20.7,24.7,30.9c3.6,2.3,31.4,20.9,56.4,6.9c18.2-10.2,22.6-30.6,23.4-34.7
			c2.8-9.7,3.8-19.8,3-29.9l0,0c-1-9.1-3.7-17.9-7.8-26c-0.1-9.2-1.8-18.3-5.2-26.9c-1.4-3.7-8.7-22-24.3-32.1
			c-24.3-15.7-69.2-11.6-85,18.2c-14.3,26.9,4.1,57.3,5.2,59c-3.8-2.6-8.4-3.8-13-3.4c-6.9,0.7-13,5-15.6,10.3
			c-5.8,12.1,5.8,29.1,17.4,32.9c3.1,1,6.3,1.3,9.5,0.8C196.1,227.4,200.1,225.3,203.1,222z"/>
		
			<radialGradient id="SVGID_5_" cx="2440.27" cy="450.1873" r="22.09" gradientTransform="matrix(0.9 0 0 -0.87 -1960.902 597.6157)" gradientUnits="userSpaceOnUse">
			<stop  offset="0" style="stop-color:#F78B7C"/>
			<stop  offset="0.37" style="stop-color:#F88E7F;stop-opacity:0.63"/>
			<stop  offset="0.67" style="stop-color:#FA9889;stop-opacity:0.33"/>
			<stop  offset="0.94" style="stop-color:#FEA999;stop-opacity:6.000000e-02"/>
			<stop  offset="1" style="stop-color:#FFAE9E;stop-opacity:0"/>
		</radialGradient>
		<path class="st6" d="M226.2,188.6l6.5,0.1c10.9,0.3,18.9,10.2,16.3,20.5c-2.2,9.2-7.9,18-21.2,16.8S210,216,208.9,207.2
			c-1-9.2,5.6-17.5,14.8-18.5C224.5,188.5,225.4,188.5,226.2,188.6z"/>
		
			<radialGradient id="SVGID_6_" cx="4114.0039" cy="472.1937" r="22.09" gradientTransform="matrix(0.74 0 0 -0.76 -2762.6353 562.6888)" gradientUnits="userSpaceOnUse">
			<stop  offset="0" style="stop-color:#F78B7C"/>
			<stop  offset="0.37" style="stop-color:#F88E7F;stop-opacity:0.63"/>
			<stop  offset="0.67" style="stop-color:#FA9889;stop-opacity:0.33"/>
			<stop  offset="0.94" style="stop-color:#FEA999;stop-opacity:6.000000e-02"/>
			<stop  offset="1" style="stop-color:#FFAE9E;stop-opacity:0"/>
		</radialGradient>
		<path class="st7" d="M291.7,185.9l5.2,0.1c9,0.1,15.6,8.8,13.5,17.8c-1.8,8-6.5,15.6-17.6,14.6s-14.8-8.7-15.6-16.4
			C276.4,193.4,283.1,185.8,291.7,185.9z"/>
		<path class="st8" d="M274.5,185c-1.4-4.3-0.3-9,3-12.1c2.9-2.8,6.7-4.4,10.8-4.7c3-0.1,6,0.5,8.7,1.9c4.4,2.4,6.8,7.3,5.8,12.3
			c-1.9,9.5-9.4,15.7-15.3,15.3C282.2,197.5,276.7,192.4,274.5,185z"/>
		
			<ellipse transform="matrix(0.1638 -0.9865 0.9865 0.1638 67.5677 444.4607)" class="st9" cx="296" cy="182.4" rx="10.6" ry="6.6"/>
		<path class="st10" d="M263,184.7c-0.1,4,0.3,8.7,3.5,12.1c2.8,2.9,6.1,3.5,6.1,5.2c0,1.2-1.7,3-8.7,5.2"/>
		<path class="st11" d="M222,159.3c-0.5-1.8,2.4-4.7,8.8-8.8c6.3-2.9,12-0.8,13.1,2.2c0.3,1,0.2,2-0.1,3c-1,2.8-3.5,4.7-6.5,5
			C227.8,161.8,222.7,161.3,222,159.3z"/>
		<path class="st11" d="M294.3,158.5c0.4-1.4-1.8-3.7-6.8-6.9c-4.8-2.3-9.2-0.7-10.1,1.8c-0.3,0.8-0.3,1.6,0,2.3
			c0.8,2.3,2.9,3.8,5.2,4C289.9,160.5,293.8,160,294.3,158.5z"/>
		<path class="st3" d="M202.7,223.3c-2.8,2.1-9.4,6.3-17.4,5.2c-15.1-2.1-26-22.7-20.4-34.3c2.8-5.5,9.9-10.3,15.6-10.3
			c1.6,0,3.2,0.1,4.8,0.4c2.8,0.5,5.2,0.8,7.9,2.6c1.4,0.9,2.6,2.1,3.4,3.5C198.7,201.4,200.6,212.4,202.7,223.3z"/>
		<path class="st4" d="M200.1,209.6c-7.9-3.9-15.7-7.6-23.6-11.4c-2.1,4.5,0.3,9.6,5.6,12.3S195.1,212.8,200.1,209.6z"/>
		<path class="st9" d="M302.8,169.1c-1.5-7.3-3.2-13.2-4.8-17c-2.5-5.6-3.9-8.5-6.9-11.3c-1-0.8-1.9-1.4-1.8-1.8
			c0.3-0.8,6.9-0.1,11.3,4.3c0.3,0.3,0.4,0.5,0.7,0.7c2.3,2.8,3.4,6.4,3,10.1C303.8,159.2,303.3,164.3,302.8,169.1z"/>
		<path class="st4" d="M139.2,581.1c1-0.5,4.7-2.6,7-1.8c3.6,1.2,2.2,14.9-5.2,21.1c-0.6,0.5-1.2,0.9-1.8,1.2
			c-0.4,0.5-0.7,1-1.1,1.5c2.1,0.8,9.9,4.4,12.4,12.4c1,3.2,1.4,8.1-0.1,8.4c-2.4,0.4-8.3-7.2-11-11.4c-1.6-2.5-2.6-4.4-2.9-4.4
			s0.8,3.7,2.2,6.8c1.2,2.6,3.6,8.1,3.7,9.2c1.8,2.5,1,5.8-1,6.9c-1.7,0.8-3.7,0.5-5.1-0.7c-1.9-3.2-3.3-6.7-4-10.3
			c-0.5-2.3-0.7-4.7-0.5-7C132.1,586.8,135.4,583.2,139.2,581.1z"/>
		<path class="st5" d="M157.3,548.9c-0.4,6.1-3,45.1-8.7,52.1c-0.8,1-2.6,3.3-5,3.2c-2-0.2-3.7-1.6-4.4-3.4
			c-0.7-1.8,0.1-3.9,1.8-7.9c1.4-3.1,2.5-6.3,3.5-9.5c0.3-1,0.5-2.1,0-2.6c-0.8-0.8-3-0.1-4.4,0.8c-2.6,1.8-3.2,5.2-3.4,6.9
			c-1,5.6-2.1,12.1-3.2,19.4c-2.1,11.8-4,21-5.1,24.8c-0.3,1.1-1.1,3.6-3,4.4c-0.8,0.4-1.8,0.4-2.6,0.1c-3.7-1.4-1-21.8,5.2-48.1
			c2.6-11.3,5.4-20.7,7.3-26.7c2.2-13,2.3-16.1,3-18.2c0.8-2.6,3,1.7,6.8,3C149,548.6,153.2,549.2,157.3,548.9z"/>
		<path class="st12" d="M144.5,595.4c-1.7,0-3.1,1.1-3.7,2.6c-0.1,0.3-0.2,0.7-0.1,1c0.1,0.8,0.3,1.5,0.8,2.1c0.7,0.7,1.7,1,2.6,0.8
			c1.6-0.2,2.8-1.4,3-3c0-0.9-0.3-1.9-0.8-2.6C145.8,595.8,145.2,595.5,144.5,595.4z"/>
		<path class="st12" d="M122.1,628.4c0.3-0.1,0.6-0.1,0.8,0c1.9,0.8,2.1,7.2,0.4,7.9c-0.3,0.1-0.6,0.1-0.8-0.1
			c-1.1-0.5-1.2-2.3-1.4-3.6C121,631.5,120.8,628.9,122.1,628.4z"/>
		<text transform="matrix(1 0 0 1 229.06 365.38)" class="st13 st14">L</text>
		<text transform="matrix(1 0 0 1 233.83 365.38)" class="st13 st14">o</text>
		<text transform="matrix(1 0 0 1 239.54 365.38)" class="st13 st14">r</text>
		<text transform="matrix(1 0 0 1 242.84 365.38)" class="st13 st14">em ipsum</text>
		<path class="st5" d="M231.3,827.1c2.6,21.1,5.2,42.2,7.9,63.4l-20.8,0.8c-3.4-20.3-6.9-40.5-10.3-60.8L231.3,827.1z"/>
		<path class="st5" d="M266.1,820c3.2,23.4,6.3,46.9,9.5,70.3c7.2,1.8,14.5,3.4,21.6,5.2c-2.9-24.3-5.8-48.5-8.7-72.9
			C281.1,821.8,273.5,821,266.1,820z"/>
		<path class="st5" d="M156.7,554.7c6.9-29.9,13.8-60.1,20.4-90.7c5.8-26.7,11.4-53,16.9-79.4c-5.5-4.3-11-8.7-16.5-13
			c-13.8,59.5-19.1,82-20.4,86.3c-0.3,1-18.3,73-19.6,90.7c-0.1,2.2-0.4,6.1-0.4,10.9c3-5.7,8.4-9,13.4-8.1
			C152.9,551.7,155,552.8,156.7,554.7z"/>
		<path class="st15" d="M178.8,480.5c0,0-9,221.3,5.4,352.3l54.8-1.4l-14.6-254.8l19.3-0.4l8.8,256.7l58.2-1.4L291,487.3
			L178.8,480.5z"/>
		<path class="st4" d="M175.4,380.8c0.4-0.4,2.9,1.5,8.3,4.8c4,2.3,7.3,4.1,9.5,5.2c-0.5,2.3-1.1,4.7-1.8,6.9c-3.1-2-6-4.3-8.7-6.9
			C178.6,386.7,174.7,381.5,175.4,380.8z"/>
		<line class="st16" x1="287.7" y1="507.8" x2="304.2" y2="827.1"/>
		<path class="st5" d="M312.1,544.7c-2.3,1.3-4.1,3.2-5.2,5.5c-7,14.6-10.2,22.9-11.7,28c-0.9,3.2-2,6.4-3.3,9.5
			c-2.9,6.1-5.4,8-4.5,9.9c1,2.3,6.6,3,10.2,0.7c4.3-2.8,5.4-9.2,6.2-14.1c0.7-4.4,3-7.8,3.6-7c0.3,0.8,0.4,1.7,0.7,2.5
			c-0.4,8.5-1.4,16.9-2.9,25.2c-1.4,8.6-2,17.3-1.8,26c0.1,2.9,0.5,8.4,3.4,9.5c0.4,0.1,0.7,0.2,1.1,0.3c5.7-0.5,6.3-47,6.2-47.1
			s-0.1,9.1-2.2,25.6c-0.8,6.2-0.5,12.5,1,18.6c0.7,2.6,1.7,6.9,3.5,6.9c2.3,0.1,4.5-7.3,5.2-9.5c2.1-6.6,2.5-8.4,2.3-8.4
			c-1.1,1.7-1.6,3.8-1.4,5.8c0.3,2.5,1.7,5.2,2.6,5.2c1.2,0,2.6-4.5,3.6-22.5l0.7-13.6c-0.7-18-1.9-37.2-2.5-55.3
			C322.8,542.9,316.9,542.1,312.1,544.7z"/>
		<path class="st5" d="M306.7,553.7c-3-29.9-6.7-60.5-11-91.9c-3.7-27.7-7.8-54.8-12.1-81.2c7-2.5,14.2-5.1,21.2-7.6
			c2.3,19.8,6.2,49.2,11.4,84.8c2.1,14.3,15.2,101.8,8.8,103.1c-1.8,0.4-5.5-9.5-12.4-9.5C311.4,551.3,309.3,551.6,306.7,553.7z"/>
		<path class="st4" d="M306.7,386.4c-0.7-0.7-3.4,1.9-10.2,4.8c-3.5,1.5-7,2.8-10.6,3.8c0.3,2.3,0.5,4.7,0.8,6.9
			c4-0.1,7.9-1.3,11.3-3.4C304.4,394.5,307.8,387.4,306.7,386.4z"/>
		<path class="st12" d="M288.1,597.9c0.8,1.2,3,1.1,3.9,1c3.6-1.5,5.1-4.4,4.4-6.1c-0.5-1.4-2.8-2.1-4.4-1.8
			C288.8,591.7,286.9,596.1,288.1,597.9z"/>
		<path class="st12" d="M307.7,639.7c0.6,0.2,1.2,0.2,1.8,0c1.5-3.4,1.9-6.2,0.8-6.9c-0.7-0.4-1.7,0-1.8,0
			C306.3,633.7,306,638.7,307.7,639.7z"/>
		<path class="st12" d="M315.8,644.1c0.3,0.5,0.9,0.8,1.5,0.7c1.5-0.1,2.3-2.6,2.6-3.6s0.8-2.5,0.3-2.8
			C319.4,638,315,642.4,315.8,644.1z"/>
		<path class="st12" d="M324.9,636.3c0.3,0.3,0.8,0.1,1.2,0c1-0.5,0.7-2.1,0.5-2.8s-0.3-1.7-0.5-1.7
			C325.3,631.8,323.8,635.5,324.9,636.3z"/>
		<path class="st17" d="M312,629.5c1.8-5.3,3-10.7,3.9-16.3c0.7-5.5,0.7-11.3-1-16.5"/>
		<path class="st17" d="M318.6,637.9c2.1-7.6,5.5-23,2.9-39.1"/>
		<path class="st17" d="M323.4,631.3c3-10.4,3.6-21.4,1.9-32.1"/>
		<path class="st12" d="M315.1,644.6c0.6,0.2,1.2,0.2,1.8,0c1.5-3.4,1.9-6.2,0.8-6.9c-0.7-0.4-1.7,0-1.8,0
			C313.7,638.9,313.5,643.7,315.1,644.6z"/>
		<path class="st18" d="M234.8,288.3c-14.9,12.1-29.2,25.1-42.8,38.7c-13.4,13.5-25.1,26.7-35.3,39.3c6.2,4.7,12.5,9.4,19,13.9
			c6.2,4.4,12.3,8.7,18.2,13c2.8-10.7,5.2-20,5.2-20l0,0c-0.3,0.8-0.5,1.8-0.8,2.6c-4.4,15.7-8.5,32.5-12.1,50.3
			c-4.8,23.4-8.1,35-10.3,55.5c0,0,38.4,1.7,115.3,5.2c-0.4-11-1-11.8-1.8-23.4c-2.1-30-5.4-58.4-9.5-85c0,0,0.4,3.3,0.8,6.1
			c0.7,5,1.2,9.2,1.8,13c14.1-6.3,28-12.7,42-19c-7.6-15.3-16.1-30.1-25.6-44.4c-11-16.5-23.1-32.1-36.4-46.8
			c-2.3,5.4-7.5,8.9-13.4,9.2C243.1,296.9,237.4,293.7,234.8,288.3z"/>
		<path class="st19" d="M196.1,384.6c-0.7,2.9-1.4,5.8-2.1,8.8c-7-4.4-14.2-9.2-21.6-14.7c-5.5-4.1-10.8-8.1-15.6-12.1
			c1.8-2.1,3.5-4,5.2-6.1C173.3,368.4,184.6,376.5,196.1,384.6z"/>
		<path class="st19" d="M321.5,371.7c1.1,2.3,2.3,4.7,3.4,6.9c-7.8,3.9-15.8,7.6-24.3,11.3c-6.2,2.8-12.3,5.4-18.2,7.8
			c-0.8-2.6-1.8-5.2-2.6-7.8C293.8,383.8,307.7,377.7,321.5,371.7z"/>
		<path class="st19" d="M239.1,283.2c0.7,4,3.9,7.1,7.9,7.9c4.7,0.5,9.7-3.2,10.3-8.7l5.2,5.2c-0.9,3.5-3.1,6.6-6.1,8.7
			c-3.9,2.5-8.6,3.1-13,1.8c-4.3-1.4-7.7-4.5-9.5-8.7C235.6,287.2,237.4,285.1,239.1,283.2z"/>
		<path class="st19" d="M176.6,474c19,2.7,38,4.5,57.2,5.2c20.4,0.7,39.4,0.3,56.4-0.8c0.5,1.7,0.7,3.5,0.8,5.2
			c0.1,1.1,0.1,2.3,0,3.4c-19.6-0.3-39.8-0.7-60.8-1.8c-18.7-0.8-36.9-2.1-54.7-3.4C176.1,479.1,176.4,476.7,176.6,474z"/>
		<path class="st10" d="M276.5,167.3c5.1-3.4,11.3-4.4,17.2-2.9"/>
		<path class="st20" d="M274.5,185c-1.4-4.3-0.3-9,3-12.1c2.9-2.8,6.7-4.4,10.8-4.7c3-0.1,6,0.5,8.7,1.9c4.4,2.4,6.8,7.3,5.8,12.3
			c-1.9,9.5-9.4,15.7-15.3,15.3C282.2,197.5,276.7,192.4,274.5,185z"/>
		<path class="st9" d="M198,197.8c0,0,24-19.3,19.8-55.4S183.1,123,183.1,123S170.2,158.8,198,197.8z"/>
		<path class="st9" d="M196.1,124.5c0,0,106,43.5,118.9,10.2S196.1,124.5,196.1,124.5z"/>
		<path class="st9" d="M216.5,127.9c0,0,106.8,3.2,124.4-25.2s-83.8-24-133.1,0.3S216.5,127.9,216.5,127.9z"/>
		<path class="st9" d="M185.7,124.4c0,0,5.5-51.4,32.8-46S185.7,124.4,185.7,124.4z"/>
		<path class="st9" d="M192.5,122.4c0,0-9.8-27.8-13.6-17.2s4.7,15.2,4.7,15.2s-12.5-4.1-10.9,4.5
			C174.2,133.4,192.5,122.4,192.5,122.4z"/>
		<circle class="st15" cx="241.9" cy="73.1" r="4.8"/>
		<circle class="st15" cx="361.4" cy="171.7" r="3"/>
		<circle class="st15" cx="144.1" cy="226.3" r="6.2"/>
		<circle class="st15" cx="131" cy="206.3" r="3"/>
		<path class="st8" d="M222.4,187.3c-1.4-4.6-0.2-9.6,3.2-13c3.1-3,7.1-4.7,11.4-5c3.2-0.2,6.4,0.5,9.2,2.1c4.7,2.5,7.2,7.8,6.2,13
			c-1.9,10.2-9.9,16.7-16.3,16.4C230.6,200.5,224.7,195.3,222.4,187.3z"/>
		
			<ellipse transform="matrix(0.1638 -0.9865 0.9865 0.1638 23.1455 396.1771)" class="st9" cx="245.3" cy="184.4" rx="11.3" ry="7"/>
		<path class="st20" d="M222.4,187.3c-1.4-4.6-0.2-9.6,3.2-13c3.1-3,7.1-4.7,11.4-5c3.2-0.2,6.4,0.5,9.2,2.1c4.7,2.5,7.2,7.8,6.2,13
			c-1.9,10.2-9.9,16.7-16.3,16.4C230.6,200.5,224.7,195.3,222.4,187.3z"/>
		<path class="st10" d="M226,168.7c5.1-3.4,11.3-4.4,17.2-2.9"/>
		<polygon class="st9" points="178.7,482 291.1,487 292.2,505 178.2,500 		"/>
		<polygon class="st15" points="190.4,482.6 189.6,506.7 194.8,506.7 195.5,482.7 		"/>
		<polygon class="st15" points="271.4,486.2 271.4,507.8 277.5,507.8 277.5,486.3 		"/>
		<path class="st16" d="M182.8,503c0,0-1.4,258.6,10.5,324.8"/>
		<polygon class="st21" points="225,482.9 225,503.9 244.8,505 247,483.7 		"/>
		<line class="st21" x1="225.7" y1="493.2" x2="237.3" y2="493.9"/>
		<polyline class="st16" points="242.6,512.3 240.7,565.7 227.8,565.7 		"/>
		<circle class="st9" cx="242.9" cy="356.7" r="32.2"/>
		
			<ellipse transform="matrix(0.9239 -0.3827 0.3827 0.9239 -117.9929 120.1098)" class="st22" cx="242.9" cy="356.7" rx="27.4" ry="27.4"/>
		<path class="st23" d="M241.3,223.1c0,0,16.5-5.7,26.5,7.5"/>
		<path class="st24" d="M256.3,357.1L236,368.8v7.7l17.6-10.2c1.6-0.9,2.6-2.7,2.6-4.5V357.1L256.3,357.1z"/>
		<polygon class="st24" points="248.6,347.7 236.2,340.5 242.9,336.7 248.6,340 		"/>
		<polygon class="st24" points="237.1,361.6 241.9,364.4 237.1,367.1 		"/>
		<polygon class="st24" points="249.5,360 249.5,340.5 256.3,344.4 256.3,356 		"/>
		<path class="st24" d="M236.2,349.3v19.4l-4.1-2.3c-1.6-0.9-2.6-2.7-2.6-4.5v-8.5L236.2,349.3z"/>
		<polygon class="st24" points="241.9,344.9 229.4,352.2 229.4,344.4 235.2,341.1 		"/>
	</g>
</g>
<circle class="st25" cx="242.7" cy="242.7" r="217.5"/>
</svg>
