<?xml version="1.0" encoding="utf-8"?>
<!-- Generator: Adobe Illustrator 22.1.0, SVG Export Plug-In . SVG Version: 6.00 Build 0)  -->
<svg version="1.1" id="Слой_1" xmlns="http://www.w3.org/2000/svg" xmlns:xlink="http://www.w3.org/1999/xlink" x="0px" y="0px"
	 viewBox="0 0 1074 1080" style="enable-background:new 0 0 1074 1080;" xml:space="preserve">
<style type="text/css">
	.st0{clip-path:url(#SVGID_2_);}
	.st1{clip-path:url(#SVGID_4_);}
	.st2{clip-path:url(#SVGID_6_);}
	.st3{clip-path:url(#SVGID_8_);}
	.st4{fill:#FF9F8F;}
	.st5{fill:#FD7D91;}
	.st6{fill:#FFAE9E;}
	.st7{opacity:0.8;fill:url(#SVGID_9_);enable-background:new    ;}
	.st8{opacity:0.8;fill:url(#SVGID_10_);enable-background:new    ;}
	.st9{fill:none;stroke:#0A0505;stroke-width:0.6587;stroke-miterlimit:10;}
	.st10{fill:#FFF4F4;stroke:#0C0C0C;stroke-width:0.8076;stroke-miterlimit:10;}
	.st11{fill:#044784;}
	.st12{fill:none;stroke:#B5232E;stroke-width:0.6587;stroke-miterlimit:10;}
	.st13{fill:#0C0C0C;}
	.st14{fill:none;stroke:#B5232E;stroke-width:0.5991;stroke-miterlimit:10;}
	.st15{fill:#353D9C;}
	.st16{fill:#FCCBC3;}
	.st17{fill:#5DADFF;}
	.st18{fill:none;stroke:#FFFFFF;stroke-width:0.6057;stroke-miterlimit:10;}
	.st19{fill:none;stroke:#FC8D7E;stroke-width:0.5991;stroke-miterlimit:10;}
	.st20{fill:#FFD974;}
	.st21{fill:#FDE19F;}
	.st22{fill:#C98000;}
	.st23{fill:#FF9693;}
	.st24{fill:none;stroke:#FFFFFF;stroke-width:0.6587;stroke-miterlimit:10;}
	.st25{fill:none;stroke:#0C0C0C;stroke-width:0.8076;stroke-miterlimit:10;}
	.st26{fill:none;stroke:#0C0C0C;stroke-width:3.8243;stroke-miterlimit:10;}
	.st27{fill:none;stroke:#FFFFFF;stroke-width:0.7004;stroke-miterlimit:10;}
	.st28{fill:#98D3F4;}
	.st29{clip-path:url(#SVGID_2_);fill:none;stroke:#FFFFFF;stroke-width:3;stroke-miterlimit:10;}
</style>
<g>
	<g>
		<g>
			<defs>
				<ellipse id="SVGID_1_" cx="537" cy="540" rx="537" ry="540"/>
			</defs>
			<clipPath id="SVGID_2_">
				<use xlink:href="#SVGID_1_"  style="overflow:visible;"/>
			</clipPath>
			<g class="st0">
				<g>
					<defs>
						<rect id="SVGID_3_" x="-2608.6" y="-597.1" width="9113.8" height="5155.1"/>
					</defs>
					<clipPath id="SVGID_4_">
						<use xlink:href="#SVGID_3_"  style="overflow:visible;"/>
					</clipPath>
					<g class="st1">
						<g>
							<defs>
								<rect id="SVGID_5_" x="-2608.6" y="-597.1" width="9113.8" height="5155.1"/>
							</defs>
							<clipPath id="SVGID_6_">
								<use xlink:href="#SVGID_5_"  style="overflow:visible;"/>
							</clipPath>
							<g class="st2">
								
									<image style="overflow:visible;enable-background:new    ;" width="1956" height="1101" xlink:href="E2C9F800.png"  transform="matrix(4.7468 0 0 4.7733 -2693.0217 -645.728)">
								</image>
							</g>
						</g>
					</g>
				</g>
				<g>
					<defs>
						<ellipse id="SVGID_7_" cx="537" cy="540" rx="537" ry="540"/>
					</defs>
					<clipPath id="SVGID_8_">
						<use xlink:href="#SVGID_7_"  style="overflow:visible;"/>
					</clipPath>
					<g class="st3">
						<g>
							<path class="st4" d="M391,623.3c-9.1,6.8-30.8,21-57.1,17.3c-49.8-6.8-85.5-75.1-67-113.3c9.1-18.2,32.6-34.1,51.2-34.1
								c2.7,0,8.6,0,15.9,1.4c9.1,1.8,17.2,2.7,25.8,8.6c3.2,1.8,7.3,5.4,11.3,11.4C377.9,550.9,384.2,586.9,391,623.3z"/>
							<path class="st5" d="M567.1,900.1c0-50.1,0-100.1,0-150.6c-8.2,2.7-16.8,5-25.8,7.3c-13.1,3.2-25.3,5-36.6,6.8
								c1.8,45.5,3.2,91,5,136.6c6.4,2.7,17.2,6.4,31.7,5.9C552.2,905.1,561.3,902.3,567.1,900.1z"/>
							<path class="st6" d="M567.1,958.8c0-50.5,0-101.1,0-152c-7.7,18.7-24.9,28.7-39.8,26c-11.3-2.3-18.1-11.4-19.9-14.1
								c0.9,46,1.8,91.5,2.7,137.5c3.6,1.8,8.6,4.1,15,5.4c1.4,0.5,9.1,2.3,19,1.8C549.5,962.9,557.6,962,567.1,958.8z"/>
							<path class="st5" d="M347.1,582.8c-18.1-15-35.7-30-53.9-45.5c-8.6,9.5-5.9,23.7,6.4,34.1
								C312.3,582.8,332.2,587.4,347.1,582.8z"/>
							<path class="st6" d="M685.3,659.3c-8.6,21.4-30.8,68.3-81,102c-11.8,7.7-103.2,69.2-185.1,22.8
								c-59.8-33.7-74.2-101.1-76.9-114.7c-9.5-34.1-12.7-66.9-10-98.8l0,0l0,0l0,0c4.1-38.2,16.3-67.4,25.8-86
								c0-21,3.2-52.8,17.2-88.8c4.5-12.3,28.5-72.8,79.7-106.1c79.7-51.9,227.2-38.2,279.3,60.1c47.1,88.8-13.6,189.4-17.2,194.8
								c5.4-3.6,21.3-13.2,42.5-11.4c22.6,2.3,42.5,16.4,51.2,34.1c19,40-19,96-57.1,108.8c-15.9,5.4-31.2,2.7-31.2,2.7
								C702.5,676.1,689.8,664.3,685.3,659.3z"/>
							
								<radialGradient id="SVGID_9_" cx="-547.1106" cy="573.1961" r="15.2905" gradientTransform="matrix(-4.2612 0 0 -4.1671 -1731.3844 2999.0215)" gradientUnits="userSpaceOnUse">
								<stop  offset="0" style="stop-color:#F78B7C"/>
								<stop  offset="0.3684" style="stop-color:#F88E7F;stop-opacity:0.6316"/>
								<stop  offset="0.6671" style="stop-color:#FA9889;stop-opacity:0.3329"/>
								<stop  offset="0.9405" style="stop-color:#FEA999;stop-opacity:5.950000e-02"/>
								<stop  offset="1" style="stop-color:#FFAE9E;stop-opacity:0"/>
							</radialGradient>
							<path class="st7" d="M609.2,548.7l-21.3,0.5c-35.7,0.9-62,33.7-53.4,67.8c7.3,30.5,25.8,59.6,69.7,55.5
								c43.4-4.1,58.4-33.2,62-62.3C670.3,576.4,643.2,547.8,609.2,548.7z"/>
							
								<radialGradient id="SVGID_10_" cx="-803.6495" cy="580.3557" r="15.2889" gradientTransform="matrix(-3.5259 0 0 -3.61 -2447.6128 2688.8279)" gradientUnits="userSpaceOnUse">
								<stop  offset="0" style="stop-color:#F78B7C"/>
								<stop  offset="0.3684" style="stop-color:#F88E7F;stop-opacity:0.6316"/>
								<stop  offset="0.6671" style="stop-color:#FA9889;stop-opacity:0.3329"/>
								<stop  offset="0.9405" style="stop-color:#FEA999;stop-opacity:5.950000e-02"/>
								<stop  offset="1" style="stop-color:#FFAE9E;stop-opacity:0"/>
							</radialGradient>
							<path class="st8" d="M394.2,540l-17.2,0.5c-29.4,0.5-51.2,29.1-44.4,58.7c5.9,26.4,21.3,51.5,58,48.3
								c36.2-3.2,48.4-28.7,51.2-54.2C444.4,564.6,422.3,539.6,394.2,540z"/>
							<path class="st9" d="M514.2,948.8"/>
							<path class="st10" d="M450.8,536.8c4.5-14.1,0.9-29.6-10-40c-9.5-9.1-21.7-14.6-35.3-15.5c-11.3-0.5-20.8,2.3-28.5,6.4
								c-14.5,7.7-22.2,24.1-19,40.5c6.4,31.4,30.8,51.9,50.3,50.5C425.5,578.2,443.5,561.4,450.8,536.8z"/>
							
								<ellipse transform="matrix(0.9868 -0.1618 0.1618 0.9868 -80.4486 68.4821)" class="st11" cx="380.2" cy="528.2" rx="21.7" ry="35"/>
							<path class="st12" d="M488.3,535.9c0.5,13.2-0.9,28.7-11.3,40c-9.1,9.5-19.9,11.4-19.9,17.3c0,4.1,5.4,10,28.5,17.3"/>
							<path class="st13" d="M623.2,452.2c1.8-5.9-7.7-15.5-29-29.1c-20.8-9.5-39.4-2.7-43,7.3c-0.9,3.2-0.9,6.8,0.5,10
								c3.2,9.1,11.8,15.5,21.3,16.4C604.3,460.4,621,458.5,623.2,452.2z"/>
							<path class="st13" d="M385.6,449.5c-1.4-4.5,5.9-12.3,22.2-22.8c15.9-7.7,30.3-2.3,33,5.9c0.9,2.3,0.9,5,0,7.7
								c-2.3,7.3-9.5,12.7-17.2,13.2C400.1,455.8,387.4,454.5,385.6,449.5z"/>
							<path class="st14" d="M432.7,662.5c7.3,5.9,34.4,25.5,71.1,21c37.1-4.5,58.9-31.4,64.7-38.7c-5.4-6.8-8.2-10.5-8.2-10.5
								s5.4,5.9,16.3,18.2"/>
							<path class="st4" d="M686.6,663.4c9.1,6.8,30.8,21,57.1,17.3c49.8-6.8,85.5-75.1,67-113.3c-9.1-18.2-32.6-34.1-51.2-34.1
								c-2.7,0-8.6,0-15.9,1.4c-9.1,1.8-17.2,2.7-25.8,8.6c-3.2,1.8-7.3,5.4-11.3,11.4C699.8,591,693.4,627.4,686.6,663.4z"/>
							<path class="st5" d="M695.2,618.3c25.8-12.7,51.6-25,77.4-37.8c6.8,15-0.9,31.9-18.6,40.5C736,629.7,711.5,628.8,695.2,618.3
								z"/>
							<path class="st11" d="M357.5,484.5c5-24.1,10.4-43.7,15.9-56c8.2-18.7,12.7-28.2,22.6-37.3c3.2-2.7,6.4-4.5,5.9-5.9
								c-0.9-2.7-22.6-0.5-37.1,14.1c-0.9,0.9-1.4,1.8-2.3,2.3c-7.7,9.1-10.9,21.4-10,33.2C354.4,451.7,356.2,468.5,357.5,484.5z"/>
							<path class="st15" d="M570.7,528.6"/>
							<path class="st5" d="M895.3,1845.5c-3.2-1.8-15.4-8.6-23.1-5.9c-11.8,4.1-7.3,49.2,17.2,69.6c2.3,1.8,4.1,3.2,5.9,4.1
								c1.4,1.8,2.3,3.2,3.6,5c-6.8,2.7-32.6,14.6-40.7,41c-3.2,10.5-4.5,26.9,0.5,27.8c7.7,1.4,27.2-23.7,36.2-37.8
								c5.4-8.2,8.6-14.6,9.5-14.6c1.4,0.5-2.7,12.3-7.3,22.3c-4.1,8.6-11.8,26.9-12.2,30.5c-5.9,8.2-3.2,19.1,3.2,22.8
								c4.5,2.7,11.3,1.8,16.8-2.3c4.5-8.2,10.4-19.6,13.1-34.1c2.3-10.5,2.3-18.7,1.8-23.2C918.4,1864.2,907.5,1852.3,895.3,1845.5
								z"/>
							<path class="st6" d="M835.6,1739c1.4,20,10,148.8,28.5,172.1c2.7,3.2,8.6,10.9,16.3,10.5c6.4-0.5,12.2-5.4,14.5-11.4
								c2.3-5.9-0.5-12.7-5.9-26c-2.3-5-7.3-16.8-11.3-31.4c-0.9-3.2-1.8-6.8,0-8.6c2.7-2.7,10-0.5,14.5,2.7
								c8.6,5.9,10.4,17.3,11.3,22.8c3.2,18.7,6.8,40,10.4,64.2c6.8,39.1,13.1,69.2,16.8,82c0.9,3.6,3.6,11.8,10,14.6
								c3.2,1.4,6.8,1.4,8.6,0.5c12.2-4.5,3.2-71.9-17.2-158.9c-8.6-37.3-17.7-68.3-24-88.3c-7.3-42.8-7.7-53.3-10-60.1
								c-2.7-8.6-10,5.4-22.2,10C859.5,1739.4,845.5,1739.4,835.6,1739z"/>
							<path class="st16" d="M877.6,1892.8c4.5-0.5,9.5,2.7,12.2,8.6c0.5,0.9,0.5,2.3,0.5,3.2c0,1.8-0.9,4.5-2.7,6.8
								c-3.2,3.2-7.7,3.2-8.6,2.7c-5-0.5-9.5-5-10-10c-0.5-4.5,2.3-7.7,2.7-8.6C874.5,1893.3,876.7,1892.8,877.6,1892.8z"/>
							<path class="st16" d="M951.4,2001.6c-1.4-0.5-2.7,0-2.7,0c-6.4,2.7-6.8,23.7-1.4,26c1.4,0.5,2.3,0,2.7-0.5
								c3.6-1.8,4.1-7.7,4.5-11.8C955,2012.1,955.5,2003.4,951.4,2001.6z"/>
							<text transform="matrix(-0.9944 0 0 1 599.9658 1132.8359)" style="font-family:'MyriadPro-Regular'; font-size:34.3866px;">L</text>
							<text transform="matrix(-0.9944 0 0 1 584.2969 1132.8359)" style="font-family:'MyriadPro-Regular'; font-size:34.3866px;">o</text>
							<text transform="matrix(-0.9944 0 0 1 565.5498 1132.8359)" style="font-family:'MyriadPro-Regular'; font-size:34.3866px;">r</text>
							<text transform="matrix(-0.9944 0 0 1 554.6758 1132.8359)" style="font-family:'MyriadPro-Regular'; font-size:34.3866px;">em ipsum</text>
							<path class="st6" d="M592.5,2658c-8.6,69.6-17.2,139.3-25.8,209.4c22.6,0.9,45.7,1.8,68.4,2.7
								c11.3-66.9,22.6-133.8,33.9-200.7L592.5,2658z"/>
							<path class="st6" d="M478.4,2634.8c-10.4,77.4-20.8,154.7-31.2,232.1c-23.5,5.9-47.5,11.4-71.1,17.3
								c9.5-80.1,19-160.2,28.5-240.8C429.1,2640.7,454,2637.9,478.4,2634.8z"/>
							<path class="st6" d="M837.8,1758.1c-22.6-98.8-45.3-198.5-67-299.5c-19-88.3-37.5-175.2-55.7-262.2
								c18.1-14.1,36.2-28.7,54.3-42.8c45.3,196.7,62.9,270.8,67,285c0.9,3.2,60.2,241.2,64.3,299.5c0.5,7.3,1.4,20,1.4,35.9
								c-10-18.7-27.6-29.6-43.9-26.9C848.2,1748.5,841,1754.5,837.8,1758.1z"/>
							<path class="st17" d="M764.9,1513.2c0,0,29.4,731-17.7,1163.9l-180.1-4.5l48-841.6l-63.4-1.4l-29,848l-191-4.5l64.7-1137.5
								L764.9,1513.2z"/>
							<path class="st5" d="M776.2,1183.7c-1.4-1.4-9.5,5-27.2,15.9c-13.1,7.7-24,13.7-31.2,17.3c1.8,7.7,3.6,15.5,5.9,22.8
								c7.3-4.5,17.7-12.3,28.5-22.8C765.8,1203.2,778.5,1185.9,776.2,1183.7z"/>
							<line class="st18" x1="407.3" y1="1603.3" x2="353" y2="2658"/>
							<g>
								<path class="st6" d="M327.2,1725.3c9.5,5,15,13.7,17.2,18.2c23.1,48.3,33.5,75.6,38.5,92.4c3.2,10,5,18.7,10.9,31.4
									c9.5,20,17.7,26.4,15,32.8c-3.2,7.7-21.7,10-33.5,2.3c-14.1-9.1-17.7-30.5-20.4-46.4c-2.3-14.6-10-26-11.8-23.2
									c-0.9,2.7-1.4,5.4-2.3,8.2c1.8,35,5.9,63.3,9.5,83.3c0,0,7.7,42.3,5.9,86c-0.5,9.5-1.8,27.8-11.3,31.4
									c-0.5,0-2.3,0.9-3.6,0.9c-18.6-1.8-20.8-155.2-20.4-155.7c0.5,0,0.5,30,7.3,84.7c0.9,8.2,4.1,32.3-3.2,61.4
									c-2.3,8.6-5.4,22.8-11.3,22.8c-7.7,0.5-15-24.1-17.2-31.4c-6.8-21.9-8.2-27.8-7.7-27.8s5.4,9.1,4.5,19.1
									c-0.9,8.2-5.4,17.3-8.6,17.3c-4.1,0-8.6-15-11.8-74.2l-2.3-45.1c2.3-59.6,6.4-122.9,8.2-182.5
									C294.2,1718,312.3,1717.6,327.2,1725.3z"/>
								<path class="st6" d="M344.9,1754.9c10-98.8,22.2-199.8,36.2-303.6c12.2-91.5,25.8-181.1,39.8-268.1
									c-23.1-8.2-46.6-16.8-69.7-25c-7.7,65.5-20.4,162.5-37.5,280.4c-6.8,47.4-49.8,336.4-29,340.5c5.9,1.4,18.1-31.4,40.7-31.4
									C329.5,1747.2,336.3,1748.1,344.9,1754.9z"/>
								<path class="st5" d="M344.9,1202.3c2.3-2.3,11.3,6.4,33.5,15.9c14.1,6.4,26.2,10,34.8,12.7c-0.9,7.7-1.8,15.5-2.7,22.8
									c-8.6-0.5-23.1-2.3-37.1-11.4C352.5,1229.2,341.2,1205.5,344.9,1202.3z"/>
								<path class="st16" d="M406,1901c-2.7,4.1-10,3.6-12.7,3.2c-11.8-5-16.8-14.6-14.5-20c1.8-4.5,9.1-6.8,14.5-5.9
									C403.7,1880.5,410.1,1895.1,406,1901z"/>
								<path class="st16" d="M341.7,2039c-0.9,0.5-2.7,0.9-5.9,0c-5-11.4-6.4-20.5-2.7-22.8c2.3-1.4,5.4,0,5.9,0
									C346.2,2019.4,347.1,2035.8,341.7,2039z"/>
								<path class="st16" d="M315,2053.5c-0.9,1.8-3.2,2.7-5,2.3c-5-0.5-7.7-8.6-8.6-11.8c-0.9-2.7-2.7-8.2-0.9-9.1
									C303.2,2033.5,317.7,2048.1,315,2053.5z"/>
								<path class="st16" d="M285.1,2028c-0.9,0.9-2.7,0.5-4.1,0c-3.2-1.8-2.3-6.8-1.8-9.1c0-1.8,0.9-5.4,1.8-5.4
									C283.8,2013,288.7,2025.3,285.1,2028z"/>
								<path class="st19" d="M327.7,2005.3c-5.4-17.8-10.4-35.5-12.7-53.7s-2.3-37.3,3.2-54.6"/>
								<path class="st19" d="M305.9,2033c-6.8-25-18.1-76-9.5-129.3"/>
								<path class="st19" d="M290.1,2011.2c-10-34.6-11.8-71-6.4-106.1"/>
								<path class="st16" d="M317.3,2055.3c-0.9,0.5-2.7,0.9-5.9,0c-5-11.4-6.4-20.5-2.7-22.8c2.3-1.4,5.4,0,5.9,0
									C321.8,2036.2,322.7,2052.1,317.3,2055.3z"/>
							</g>
							<path class="st20" d="M581.1,878.2c44.4,36.4,92.3,78.8,140.8,127.9c43.9,44.6,82.4,88.3,115.9,129.7
								c-20.4,15.5-41.2,30.9-62.5,46c-20.4,14.6-40.3,28.7-59.8,42.8c-9.1-35.5-17.2-66-17.2-66l0,0c0.9,2.7,1.8,5.9,2.7,8.6
								c14.5,51.9,28.1,107.4,39.8,166.2c15.9,77.4,26.7,115.6,33.9,183.4c0,0-126.3,5.4-378.9,17.3c1.4-36.4,3.2-39.1,5.9-77.4
								c6.8-99.2,17.7-193,31.2-280.9c0,0-1.4,10.9-2.7,20c-2.3,16.4-4.1,30.5-5.9,42.8c-46.2-21-91.9-41.9-138.1-62.8
								c22.2-45.1,49.8-94.7,84.2-146.6c40.3-61,81.5-112,119.5-154.7c7.7,17.8,24.9,29.6,43.9,30.5
								C553.6,906.9,572.1,896,581.1,878.2z"/>
							<path class="st21" d="M708.4,1196.4c2.3,9.5,4.5,19.1,6.8,29.1c23.1-14.6,46.6-30.5,71.1-48.7c18.1-13.7,35.3-26.9,51.2-40
								c-5.9-6.8-11.3-13.2-17.2-20C783,1142.7,745.9,1169.5,708.4,1196.4z"/>
							<path class="st21" d="M296.4,1153.6c-3.6,7.7-7.7,15.5-11.3,22.8c25.8,12.7,52.1,25,79.7,37.3c20.4,9.1,40.3,17.8,59.8,26
								c2.7-8.6,5.9-17.3,8.6-26C387.4,1193.7,341.7,1173.7,296.4,1153.6z"/>
							<path class="st21" d="M567.1,861.4c-2.7,13.7-13.6,24.1-25.8,26c-15.4,1.8-31.7-10.5-33.9-28.7c-5.9,5.9-11.3,11.4-17.2,17.3
								c0.9,4.1,5.4,18.7,19.9,28.7c19,12.7,39.8,6.8,42.5,5.9c21.7-6.8,30.3-26,31.2-28.7C578.4,874.6,572.6,867.7,567.1,861.4z"/>
							<path class="st22" d="M530,941.5"/>
							<path class="st23" d="M749.6,1231"/>
							<path class="st23" d="M851.9,1503.2"/>
							<path class="st21" d="M772.2,1491.8c-56.6,8.2-119.5,14.6-187.8,17.3c-67,2.3-129.4,0.9-185.1-2.7
								c-1.4,4.5-2.3,10.5-2.7,17.3c-0.5,4.1,0,8.2,0,11.4c64.3-0.9,130.8-2.3,199.6-5.9c61.6-2.7,121.3-6.8,179.7-11.4
								C774,1508.6,773.1,1500.5,772.2,1491.8z"/>
							<polygon class="st11" points="666.7,2792.7 618.3,2864.2 567.1,2864.2 552.6,2952.9 823.3,2952.9 649.5,2872.8 							"/>
							<polygon class="st11" points="347.6,2795.5 396,2866.9 447.2,2866.9 461.7,2956.1 191,2956.1 364.8,2875.6 							"/>
							<polygon class="st17" points="736,2912.9 695.2,2947.5 553.6,2947.5 547.2,2956.1 826,2956.1 831.9,2956.1 							"/>
							<polygon class="st17" points="278.3,2915.7 319.1,2950.2 460.8,2950.2 467.1,2958.9 187.8,2958.9 182.4,2958.9 							"/>
							<g>
								<line class="st24" x1="660.8" y1="2875.6" x2="644.1" y2="2895.6"/>
								<line class="st24" x1="672.6" y1="2881.5" x2="655.4" y2="2901.5"/>
								<line class="st24" x1="683.9" y1="2887" x2="666.7" y2="2907.4"/>
							</g>
							<g>
								<line class="st24" x1="353" y1="2878.8" x2="370.2" y2="2898.8"/>
								<line class="st24" x1="341.7" y1="2884.2" x2="358.9" y2="2904.2"/>
								<line class="st24" x1="330.4" y1="2890.2" x2="347.6" y2="2910.2"/>
							</g>
							<path class="st12" d="M444,478.6c0,0-24-18.2-56.6-9.5"/>
							<path class="st25" d="M450.8,536.8c4.5-14.1,0.9-29.6-10-40c-9.5-9.1-21.7-14.6-35.3-15.5c-11.3-0.5-20.8,2.3-28.5,6.4
								c-14.5,7.7-22.2,24.1-19,40.5c6.4,31.4,30.8,51.9,50.3,50.5C425.5,578.2,443.5,561.4,450.8,536.8z"/>
							<g>
								<path class="st11" d="M702,579.2c0,0-78.7-63.7-65.2-183S750.9,332,750.9,332S793.5,450.4,702,579.2z"/>
								<path class="st11" d="M708.4,337c0,0-348.1,143.8-390.7,33.7C275.6,260.1,708.4,337,708.4,337z"/>
								<path class="st11" d="M641.4,348.4c0,0-350.8,10.5-408.7-83.3s275.2-79.2,437.3,0.9C831.5,346.6,641.4,348.4,641.4,348.4z"
									/>
								<path class="st11" d="M742.3,336.6c0,0-18.1-169.8-107.8-152S742.3,336.6,742.3,336.6z"/>
								<path class="st11" d="M720.1,330.2c0,0,32.1-91.9,44.8-56.9s-15.4,50.1-15.4,50.1s41.2-13.7,35.7,15
									C780.3,366.6,720.1,330.2,720.1,330.2z"/>
							</g>
							<ellipse class="st17" cx="557.6" cy="167.2" rx="15.9" ry="15.9"/>
							<ellipse class="st17" cx="165.2" cy="493.1" rx="10" ry="10"/>
							<ellipse class="st17" cx="879" cy="673.4" rx="20.4" ry="20.5"/>
							<ellipse class="st17" cx="922" cy="607.4" rx="10" ry="10"/>
							<path class="st10" d="M621.9,544.6c4.5-15,0.9-31.9-10.4-42.8c-10-9.5-23.1-15.5-37.5-16.4c-12.2-0.9-22.2,2.3-30.3,6.8
								c-15.4,8.2-23.5,25.5-20.4,42.8c6.4,33.7,32.6,55.1,53.4,54.2C594.7,588.3,614.2,571,621.9,544.6z"/>
							
								<ellipse transform="matrix(0.9868 -0.1618 0.1618 0.9868 -79.3634 95.5318)" class="st11" cx="546.8" cy="535" rx="23.1" ry="37.3"/>
							<path class="st25" d="M621.9,544.6c4.5-15,0.9-31.9-10.4-42.8c-10-9.5-23.1-15.5-37.5-16.4c-12.2-0.9-22.2,2.3-30.3,6.8
								c-15.4,8.2-23.5,25.5-20.4,42.8c6.4,33.7,32.6,55.1,53.4,54.2C594.7,588.3,614.2,571,621.9,544.6z"/>
							<path class="st12" d="M610.1,483.1c0,0-24-18.2-56.6-9.5"/>
							<polygon class="st11" points="765.4,1518.2 396,1534.6 392.4,1594.2 767.2,1577.4 							"/>
							<polygon class="st17" points="726.9,1520 729.6,1599.7 712.4,1599.7 710.2,1520.5 							"/>
							<polygon class="st17" points="460.8,1531.9 460.8,1603.3 440.8,1603.3 440.8,1532.3 							"/>
							<path class="st18" d="M751.8,1587.4c0,0,4.5,854.4-34.4,1072.9"/>
							<polygon class="st26" points="613.3,1521 613.3,1590.6 548.1,1594.2 540.8,1523.7 							"/>
							<line class="st26" x1="611" y1="1555.1" x2="573" y2="1557.4"/>
							<polyline class="st18" points="555.4,1618.4 561.7,1794.5 604.3,1794.5 							"/>
							<ellipse class="st11" cx="554.5" cy="1104" rx="105.9" ry="106.5"/>
							<ellipse class="st27" cx="554.5" cy="1104" rx="90.1" ry="90.6"/>
							<rect x="182.4" y="2958.9" class="st13" width="285.2" height="20"/>
							<rect x="547.2" y="2956.1" class="st13" width="285.2" height="20"/>
						</g>
						<g>
							<path class="st28" d="M510.6,1105.3l66.5,38.7v25.5l-58-33.7c-5.4-3.2-8.6-8.6-8.6-15V1105.3L510.6,1105.3z"/>
							<g>
								<polygon class="st28" points="535.9,1074.4 576.6,1050.7 554.5,1038 535.9,1048.9 								"/>
							</g>
							<g>
								<polygon class="st28" points="573.5,1120.4 557.6,1129.5 573.5,1138.6 								"/>
							</g>
							<g>
								<polygon class="st28" points="532.7,1114.9 532.7,1050.7 510.6,1063.5 510.6,1101.7 								"/>
							</g>
							<g>
								<path class="st28" d="M576.6,1079.9v64.2l13.6-7.7c5.4-3.2,8.6-8.6,8.6-15v-28.2L576.6,1079.9z"/>
							</g>
							<g>
								<polygon class="st28" points="557.6,1065.3 598.8,1089.5 598.8,1063.5 579.8,1052.6 								"/>
							</g>
						</g>
					</g>
				</g>
			</g>
			<ellipse class="st29" cx="537" cy="540" rx="537" ry="540"/>
		</g>
	</g>
</g>
</svg>
