<?xml version="1.0" encoding="utf-8"?>
<!-- Generator: Adobe Illustrator 22.1.0, SVG Export Plug-In . SVG Version: 6.00 Build 0)  -->
<svg version="1.1" id="Слой_1" xmlns="http://www.w3.org/2000/svg" xmlns:xlink="http://www.w3.org/1999/xlink" x="0px" y="0px"
	 viewBox="0 0 485.5 485.5" style="enable-background:new 0 0 485.5 485.5;" xml:space="preserve">
<style type="text/css">
	.st0{fill:url(#SVGID_1_);}
	.st1{clip-path:url(#SVGID_3_);}
	.st2{fill:url(#SVGID_4_);}
	.st3{fill:#FF9F8F;}
	.st4{fill:#FD7D91;}
	.st5{fill:#FFAE9E;}
	.st6{opacity:0.8;fill:url(#SVGID_5_);enable-background:new    ;}
	.st7{opacity:0.8;fill:url(#SVGID_6_);enable-background:new    ;}
	.st8{fill:#FFF4F4;stroke:#0C0C0C;stroke-width:1.1;stroke-miterlimit:10;}
	.st9{fill:#044784;}
	.st10{fill:none;stroke:#B5232E;stroke-width:0.9;stroke-miterlimit:10;}
	.st11{fill:#0C0C0C;}
	.st12{fill:none;stroke:#B5232E;stroke-width:0.82;stroke-miterlimit:10;}
	.st13{fill:#FCCBC3;}
	.st14{font-family:'MyriadPro-Regular';}
	.st15{font-size:9.85px;}
	.st16{fill:#5DADFF;}
	.st17{fill:none;stroke:#FFFFFF;stroke-width:0.83;stroke-miterlimit:10;}
	.st18{fill:none;stroke:#FC8D7E;stroke-width:0.82;stroke-miterlimit:10;}
	.st19{fill:#FFD974;}
	.st20{fill:#FDE19F;}
	.st21{fill:none;stroke:#FFFFFF;stroke-width:0.9;stroke-miterlimit:10;}
	.st22{fill:none;stroke:#0C0C0C;stroke-width:1.1;stroke-miterlimit:10;}
	.st23{fill:none;stroke:#0C0C0C;stroke-width:5.23;stroke-miterlimit:10;}
	.st24{fill:none;stroke:#FFFFFF;stroke-width:0.96;stroke-miterlimit:10;}
	.st25{fill:#98D3F4;}
	.st26{fill:none;stroke:#FFFFFF;stroke-width:5;stroke-miterlimit:10;}
</style>
<linearGradient id="SVGID_1_" gradientUnits="userSpaceOnUse" x1="-11947.2334" y1="578.6631" x2="-11603.9473" y2="235.377" gradientTransform="matrix(-1 0 0 -1 -11532.8496 649.76)">
	<stop  offset="0" style="stop-color:#00FDFF"/>
	<stop  offset="4.000000e-02" style="stop-color:#22C3FF"/>
	<stop  offset="8.000000e-02" style="stop-color:#4190FF"/>
	<stop  offset="0.12" style="stop-color:#5B64FF"/>
	<stop  offset="0.16" style="stop-color:#7040FF"/>
	<stop  offset="0.2" style="stop-color:#8124FF"/>
	<stop  offset="0.24" style="stop-color:#8D10FF"/>
	<stop  offset="0.28" style="stop-color:#9404FF"/>
	<stop  offset="0.32" style="stop-color:#9600FF"/>
	<stop  offset="0.65" style="stop-color:#00FDFF"/>
	<stop  offset="0.69" style="stop-color:#22C3FF"/>
	<stop  offset="0.73" style="stop-color:#4190FF"/>
	<stop  offset="0.78" style="stop-color:#5B64FF"/>
	<stop  offset="0.82" style="stop-color:#7040FF"/>
	<stop  offset="0.87" style="stop-color:#8124FF"/>
	<stop  offset="0.91" style="stop-color:#8D10FF"/>
	<stop  offset="0.96" style="stop-color:#9404FF"/>
	<stop  offset="1" style="stop-color:#9600FF"/>
</linearGradient>
<circle class="st0" cx="242.7" cy="242.7" r="242.7"/>
<g>
	<defs>
		<circle id="SVGID_2_" cx="242.7" cy="242.7" r="215.9"/>
	</defs>
	<clipPath id="SVGID_3_">
		<use xlink:href="#SVGID_2_"  style="overflow:visible;"/>
	</clipPath>
	<g class="st1">
		
			<linearGradient id="SVGID_4_" gradientUnits="userSpaceOnUse" x1="-11928.2832" y1="559.7125" x2="-11622.8975" y2="254.3276" gradientTransform="matrix(-1 0 0 -1 -11532.8496 649.76)">
			<stop  offset="0" style="stop-color:#1BBC60"/>
			<stop  offset="5.000000e-02" style="stop-color:#17A15D"/>
			<stop  offset="0.14" style="stop-color:#117D58"/>
			<stop  offset="0.23" style="stop-color:#0B5D54"/>
			<stop  offset="0.33" style="stop-color:#074451"/>
			<stop  offset="0.44" style="stop-color:#04304E"/>
			<stop  offset="0.56" style="stop-color:#02224C"/>
			<stop  offset="0.72" style="stop-color:#001A4B"/>
			<stop  offset="1" style="stop-color:#00184B"/>
		</linearGradient>
		<circle class="st2" cx="242.7" cy="242.7" r="215.9"/>
		<path class="st3" d="M284.6,210c2.6,2,8.9,6,16.4,5c14.3-2,24.7-21.5,19.3-32.5c-2.6-5.2-9.4-9.8-14.7-9.8c-1.5,0-3.1,0.1-4.6,0.4
			c-2.6,0.5-5,0.8-7.4,2.5c-1.3,0.8-2.4,1.9-3.3,3.3C288.4,189.3,286.6,199.6,284.6,210z"/>
		<path class="st4" d="M233.9,289.3v-43.2c2.3,0.8,4.8,1.4,7.4,2.1c3.8,0.9,7.3,1.4,10.6,2c-0.5,13-0.9,26.1-1.4,39.1
			c-2.9,1.2-6,1.8-9.1,1.7C238.8,290.8,236.3,290.2,233.9,289.3z"/>
		<path class="st5" d="M233.9,306.1v-43.5c2.2,5.3,7.2,8.2,11.5,7.4c2.3-0.6,4.4-2,5.7-4c-0.3,13.2-0.5,26.2-0.8,39.4
			c-1.4,0.7-2.8,1.2-4.3,1.6c-1.8,0.4-3.6,0.6-5.5,0.5C238.3,307.3,236.1,306.8,233.9,306.1z"/>
		<path class="st4" d="M297.3,198.4c5.2-4.3,10.3-8.6,15.5-13c2.5,2.7,1.7,6.8-1.8,9.8C307.2,198.4,302.1,199.6,297.3,198.4z"/>
		<path class="st5" d="M199.9,220.3c2.5,6.1,8.9,19.6,23.3,29.2c3.4,2.2,29.7,19.8,53.3,6.5c17.2-9.6,21.4-28.9,22.2-32.9
			c2.7-9.2,3.6-18.8,2.9-28.3l0,0c-0.9-8.6-3.5-17-7.4-24.6c-0.1-8.7-1.7-17.3-5-25.4c-1.3-3.5-8.2-20.9-23-30.4
			c-23-14.9-65.5-11-80.5,17.2c-13.5,25.4,4,54.2,5,55.8c-3.6-2.4-7.9-3.6-12.3-3.3c-6.5,0.6-12.3,4.7-14.7,9.8
			c-5.5,11.5,5.5,27.5,16.4,31.2c2.9,0.9,6,1.2,9,0.8C193.3,225.4,197.1,223.4,199.9,220.3z"/>
		
			<radialGradient id="SVGID_5_" cx="2313.8201" cy="451.2372" r="20.9" gradientTransform="matrix(0.9 0 0 -0.87 -1851.896 597.6157)" gradientUnits="userSpaceOnUse">
			<stop  offset="0" style="stop-color:#F78B7C"/>
			<stop  offset="0.37" style="stop-color:#F88E7F;stop-opacity:0.63"/>
			<stop  offset="0.67" style="stop-color:#FA9889;stop-opacity:0.33"/>
			<stop  offset="0.94" style="stop-color:#FEA999;stop-opacity:6.000000e-02"/>
			<stop  offset="1" style="stop-color:#FFAE9E;stop-opacity:0"/>
		</radialGradient>
		<path class="st6" d="M221.8,188.6l6.1,0.1c10.3,0.3,17.9,9.6,15.4,19.4c-2.1,8.7-7.4,17.1-20.1,15.9s-16.8-9.5-17.9-17.9
			c-1-8.7,5.3-16.5,14-17.5C220.2,188.6,221,188.6,221.8,188.6z"/>
		
			<radialGradient id="SVGID_6_" cx="3734.4236" cy="473.0437" r="20.9" gradientTransform="matrix(0.74 0 0 -0.76 -2488.8774 562.6888)" gradientUnits="userSpaceOnUse">
			<stop  offset="0" style="stop-color:#F78B7C"/>
			<stop  offset="0.37" style="stop-color:#F88E7F;stop-opacity:0.63"/>
			<stop  offset="0.67" style="stop-color:#FA9889;stop-opacity:0.33"/>
			<stop  offset="0.94" style="stop-color:#FEA999;stop-opacity:6.000000e-02"/>
			<stop  offset="1" style="stop-color:#FFAE9E;stop-opacity:0"/>
		</radialGradient>
		<path class="st7" d="M283.7,186.2l5,0.1c8.5,0.1,14.7,8.3,12.8,16.8c-1.8,7.6-6.2,14.8-16.8,13.8s-14-8.2-14.7-15.5
			c-0.8-7.6,4.7-14.4,12.3-15.2C282.8,186.2,283.2,186.2,283.7,186.2z"/>
		<path class="st8" d="M267.4,185.3c-1.3-4.1-0.2-8.5,2.9-11.5c2.8-2.6,6.4-4.2,10.2-4.4c2.8-0.1,5.7,0.5,8.2,1.8
			c4.2,2.2,6.4,7,5.5,11.6c-1.8,9-8.9,14.9-14.5,14.5C274.7,197.1,269.5,192.3,267.4,185.3z"/>
		
			<ellipse transform="matrix(0.1638 -0.9865 0.9865 0.1638 60.3128 436.7534)" class="st9" cx="287.8" cy="182.8" rx="10" ry="6.3"/>
		<path class="st10" d="M256.6,185c-0.1,3.8,0.3,8.2,3.3,11.5c2.6,2.7,5.7,3.3,5.7,5c0,1.2-1.6,2.9-8.2,5"/>
		<path class="st11" d="M217.7,161c-0.5-1.7,2.2-4.4,8.3-8.3c6-2.7,11.3-0.8,12.4,2.1c0.3,0.9,0.2,2-0.1,2.9c-1,2.6-3.3,4.4-6.1,4.7
			C223.2,163.4,218.4,162.9,217.7,161z"/>
		<path class="st11" d="M286.2,160.2c0.4-1.3-1.7-3.5-6.4-6.5c-4.6-2.2-8.7-0.6-9.5,1.7c-0.3,0.7-0.3,1.5,0,2.2
			c0.7,2.1,2.7,3.6,5,3.8C282,162,285.7,161.7,286.2,160.2z"/>
		<path class="st12" d="M272.7,221.2c-2.1,1.7-9.9,7.3-20.5,6s-17-9-18.7-11.1c1.6-2,2.3-3,2.3-3s-1.6,1.7-4.7,5.2"/>
		<path class="st3" d="M199.5,221.5c-2.6,2-8.9,6-16.4,5c-14.3-2-24.6-21.5-19.3-32.5c2.6-5.2,9.4-9.8,14.7-9.8
			c1.5,0,3.1,0.1,4.6,0.4c2.6,0.5,5,0.8,7.4,2.5c1.3,0.8,2.4,1.9,3.3,3.3C195.7,200.8,197.5,211.2,199.5,221.5z"/>
		<path class="st4" d="M197,208.6c-7.4-3.6-14.9-7.2-22.3-10.8c-2,4.3,0.3,9.1,5.4,11.6S192.3,211.6,197,208.6z"/>
		<path class="st9" d="M294.3,170.3c-1-5.5-2.5-10.8-4.6-16c-2.3-5.3-3.7-8.1-6.5-10.7c-0.9-0.8-1.8-1.3-1.7-1.7
			c0.3-0.8,6.5-0.1,10.7,4c0.3,0.3,0.4,0.5,0.7,0.6c2.2,2.7,3.2,6.1,2.9,9.5C295.2,160.9,294.7,165.7,294.3,170.3z"/>
		<path class="st4" d="M139.4,560.1c0.9-0.5,4.4-2.5,6.6-1.7c3.4,1.2,2.1,14.1-5,20c-0.5,0.4-1.1,0.8-1.7,1.2
			c-0.4,0.5-0.6,0.9-1,1.4c2,0.8,9.4,4.2,11.7,11.7c0.9,3,1.3,7.7-0.1,8c-2.2,0.4-7.8-6.8-10.4-10.8c-1.6-2.3-2.5-4.2-2.7-4.2
			s0.8,3.5,2.1,6.4c1.2,2.5,3.4,7.7,3.5,8.7c1.7,2.3,0.9,5.5-0.9,6.5c-1.6,0.8-3.5,0.5-4.8-0.7c-1.8-3-3.1-6.3-3.8-9.8
			c-0.5-2.2-0.7-4.4-0.5-6.7C132.7,565.5,135.9,562.1,139.4,560.1z"/>
		<path class="st5" d="M156.6,529.6c-0.4,5.7-2.9,42.6-8.2,49.3c-0.8,0.9-2.5,3.1-4.7,3c-1.9-0.2-3.5-1.5-4.2-3.3
			c-0.6-1.7,0.1-3.7,1.7-7.4c1.3-2.9,2.4-5.9,3.3-9c0.3-0.9,0.5-2,0-2.5c-0.8-0.8-2.9-0.1-4.2,0.8c-2.5,1.7-3,5-3.3,6.5
			c-0.9,5.3-2,11.5-3,18.4c-2,11.2-3.8,19.8-4.8,23.5c-0.3,1-1,3.4-2.9,4.2c-0.8,0.4-1.7,0.4-2.5,0.1c-3.5-1.3-0.9-20.6,5-45.5
			c2.5-10.7,5.1-19.6,6.9-25.3c2.1-12.3,2.2-15.3,2.9-17.2c0.8-2.5,2.9,1.6,6.4,2.9C148.8,529.3,152.7,529.9,156.6,529.6z"/>
		<path class="st13" d="M144.5,573.7c-1.6,0-3,1-3.5,2.5c-0.1,0.3-0.2,0.6-0.1,0.9c0,0.7,0.3,1.4,0.8,2c0.6,0.7,1.6,0.9,2.5,0.8
			c1.5-0.2,2.7-1.4,2.9-2.9c0-0.9-0.2-1.8-0.8-2.5C145.7,574,145.1,573.8,144.5,573.7z"/>
		<path class="st13" d="M123.2,604.9c0.3-0.1,0.5-0.1,0.8,0c1.8,0.8,2,6.8,0.4,7.4c-0.3,0.1-0.6,0.1-0.8-0.1c-1-0.5-1.2-2.2-1.3-3.4
			C122.2,607.9,122.1,605.4,123.2,604.9z"/>
		<text transform="matrix(1 0 0 1 224.47 355.98)" class="st14 st15">L</text>
		<text transform="matrix(1 0 0 1 228.98 355.98)" class="st14 st15">o</text>
		<text transform="matrix(1 0 0 1 234.39 355.98)" class="st14 st15">r</text>
		<text transform="matrix(1 0 0 1 237.5099 355.98)" class="st14 st15">em ipsum</text>
		<path class="st5" d="M226.6,792.9c2.5,20,5,39.9,7.4,60l-19.7,0.8l-9.8-57.5L226.6,792.9z"/>
		<path class="st5" d="M259.5,786.2c3,22.2,6,44.3,9,66.5c6.8,1.7,13.7,3.3,20.5,5c-2.7-23-5.5-45.9-8.2-69
			C273.7,787.9,266.5,787.1,259.5,786.2z"/>
		<path class="st5" d="M156,535.1c6.5-28.3,13-56.8,19.3-85.8c5.5-25.3,10.8-50.2,16-75.1c-5.2-4-10.4-8.2-15.6-12.3
			c-13,56.3-18.1,77.6-19.3,81.6c-0.3,0.9-17.3,69.1-18.5,85.8c-0.1,2.1-0.4,5.7-0.4,10.3c2.9-5.3,8-8.5,12.6-7.7
			C152.3,532.3,154.4,533.4,156,535.1z"/>
		<path class="st16" d="M176.9,464.9c0,0-8.5,209.4,5.1,333.4l51.9-1.3L220.1,556l18.3-0.4l8.4,242.9l55-1.3l-18.7-325.8
			L176.9,464.9z"/>
		<path class="st4" d="M173.7,370.5c0.4-0.4,2.7,1.4,7.8,4.6c3.8,2.2,6.9,3.9,9,5c-0.5,2.2-1,4.4-1.7,6.5c-2.9-1.9-5.7-4.1-8.2-6.5
			C176.7,376.1,173,371.2,173.7,370.5z"/>
		<line class="st17" x1="280" y1="490.8" x2="295.6" y2="792.9"/>
		<path class="st5" d="M303,525.7c-2.2,1.2-3.9,3-5,5.2c-6.7,13.8-9.7,21.6-11.1,26.5c-0.8,3.1-1.9,6.1-3.1,9
			c-2.7,5.7-5.1,7.6-4.3,9.4c0.9,2.2,6.3,2.9,9.7,0.7c4-2.6,5.1-8.7,5.9-13.3c0.7-4.2,2.9-7.4,3.4-6.7c0.3,0.8,0.4,1.6,0.7,2.3
			c-0.4,8-1.3,16-2.7,23.9c-1.4,8.1-1.9,16.4-1.7,24.7c0.1,2.7,0.5,8,3.3,9c0.3,0.1,0.7,0.2,1,0.3c5.3-0.5,6-44.5,5.9-44.6
			s-0.1,8.6-2.1,24.3c-0.7,5.9-0.4,11.9,1.1,17.6c0.7,2.5,1.6,6.5,3.3,6.5c2.2,0.1,4.3-6.9,5-9c2-6.3,2.3-8,2.2-8
			c-1,1.6-1.5,3.6-1.3,5.5c0.3,2.3,1.6,5,2.5,5c1.2,0,2.5-4.3,3.4-21.3l0.7-12.9c-0.7-17.1-1.8-35.2-2.3-52.3
			C313.2,523.9,307.6,523.2,303,525.7z"/>
		<path class="st5" d="M298,534.2c-2.9-28.3-6.3-57.3-10.4-87c-3.5-26.2-7.4-51.9-11.5-76.8c6.7-2.3,13.4-4.8,20.1-7.2
			c2.2,18.8,5.9,46.5,10.8,80.3c2,13.6,14.3,96.3,8.3,97.5c-1.7,0.4-5.2-9-11.7-9C302.4,532,300.4,532.2,298,534.2z"/>
		<path class="st4" d="M298,375.9c-0.7-0.7-3.3,1.8-9.7,4.6c-3.3,1.4-6.6,2.6-10,3.7c0.3,2.2,0.5,4.4,0.8,6.5
			c3.8-0.1,7.4-1.3,10.7-3.3C295.7,383.6,299,376.8,298,375.9z"/>
		<path class="st13" d="M280.3,576c0.8,1.2,2.9,1,3.7,0.9c3.4-1.4,4.8-4.2,4.2-5.7c-0.5-1.3-2.6-2-4.2-1.7
			C281,570.2,279.2,574.3,280.3,576z"/>
		<path class="st13" d="M298.9,615.5c0.5,0.2,1.1,0.2,1.7,0c1.4-3.3,1.8-5.9,0.8-6.5c-0.7-0.4-1.6,0-1.7,0
			C297.6,609.9,297.3,614.6,298.9,615.5z"/>
		<path class="st13" d="M306.6,619.7c0.3,0.5,0.9,0.8,1.4,0.7c1.4-0.1,2.2-2.5,2.5-3.4s0.8-2.3,0.3-2.6
			C310,614,305.7,618.2,306.6,619.7z"/>
		<path class="st13" d="M315.2,612.4c0.3,0.3,0.8,0.1,1.2,0c0.9-0.5,0.7-2,0.5-2.6s-0.3-1.6-0.5-1.6
			C315.5,608.1,314.1,611.6,315.2,612.4z"/>
		<path class="st18" d="M302.9,605.9c1.7-5,2.9-10.2,3.7-15.4c0.7-5.2,0.7-10.7-0.9-15.7"/>
		<path class="st18" d="M309.2,613.9c2-7.2,5.2-21.8,2.7-37"/>
		<path class="st18" d="M313.7,607.6c2.8-9.9,3.4-20.2,1.8-30.4"/>
		<path class="st13" d="M305.9,620.2c0.5,0.2,1.1,0.2,1.7,0c1.4-3.3,1.8-5.9,0.8-6.5c-0.7-0.4-1.6,0-1.7,0
			C304.6,614.8,304.3,619.3,305.9,620.2z"/>
		<path class="st19" d="M229.9,283.1c-14.2,11.5-27.7,23.7-40.5,36.6c-12.6,12.8-23.7,25.3-33.4,37.2c5.9,4.4,11.9,8.9,18,13.2
			c5.9,4.2,11.6,8.2,17.2,12.3c2.6-10.2,5-18.9,5-18.9l0,0c-0.3,0.8-0.5,1.7-0.8,2.5c-4.2,14.9-8.1,30.8-11.5,47.6
			c-4.6,22.2-7.7,33.1-9.8,52.5c0,0,36.4,1.6,109.1,5c-0.4-10.4-0.9-11.2-1.7-22.2c-2-28.4-5.1-55.3-9-80.5c0,0,0.4,3.1,0.8,5.7
			c0.7,4.7,1.2,8.7,1.7,12.3c13.3-6,26.5-12,39.8-18c-7.2-14.5-15.3-28.5-24.3-42c-10.4-15.6-21.9-30.4-34.4-44.3
			c-2.2,5.1-7.1,8.5-12.7,8.7C237.8,291.2,232.4,288.2,229.9,283.1z"/>
		<path class="st20" d="M193.3,374.2c-0.6,2.7-1.3,5.5-2,8.3c-6.6-4.2-13.4-8.7-20.5-14c-5.2-3.9-10.2-7.7-14.7-11.5l5-5.7
			C171.7,358.8,182.4,366.5,193.3,374.2z"/>
		<path class="st20" d="M311.9,361.9c1,2.2,2.2,4.4,3.3,6.5c-7.4,3.7-15,7.2-22.9,10.7c-5.9,2.6-11.6,5.1-17.2,7.4
			c-0.8-2.5-1.7-5-2.5-7.4C285.7,373.4,298.9,367.7,311.9,361.9z"/>
		<path class="st20" d="M233.9,278.2c0.7,3.8,3.7,6.7,7.4,7.4c4.4,0.5,9.1-3,9.8-8.2l5,5c-0.9,3.3-2.9,6.3-5.7,8.2
			c-3.7,2.3-8.1,2.9-12.3,1.7c-4-1.3-7.3-4.3-9-8.2C230.7,282,232.4,280.1,233.9,278.2z"/>
		<path class="st20" d="M174.9,458.8c17.9,2.6,36,4.3,54.1,5c19.3,0.7,37.3,0.3,53.3-0.8c0.4,1.6,0.7,3.3,0.8,5
			c0.1,1.1,0.1,2.2,0,3.3c-18.5-0.3-37.7-0.7-57.5-1.7c-17.7-0.8-35-2-51.8-3.3C174.3,463.6,174.6,461.3,174.9,458.8z"/>
		<polygon class="st9" points="205.2,831.5 219.2,851.9 233.9,851.9 238.1,877.4 160.1,877.4 210.2,854.4 		"/>
		<polygon class="st9" points="297.2,832.3 283.2,852.7 268.5,852.7 264.3,878.3 342.3,878.3 292.2,855.2 		"/>
		<line class="st21" x1="206.9" y1="855.2" x2="211.8" y2="860.9"/>
		<line class="st21" x1="203.5" y1="856.9" x2="208.5" y2="862.6"/>
		<line class="st21" x1="200.3" y1="858.5" x2="205.2" y2="864.3"/>
		<line class="st21" x1="295.6" y1="856.1" x2="290.6" y2="861.8"/>
		<line class="st21" x1="298.9" y1="857.7" x2="293.9" y2="863.4"/>
		<line class="st21" x1="302.1" y1="859.4" x2="297.2" y2="865.1"/>
		<path class="st10" d="M269.4,168.6c4.8-3.2,10.8-4.2,16.3-2.7"/>
		<path class="st22" d="M267.4,185.3c-1.3-4.1-0.2-8.5,2.9-11.5c2.8-2.6,6.4-4.2,10.2-4.4c2.8-0.1,5.7,0.5,8.2,1.8
			c4.2,2.2,6.4,7,5.5,11.6c-1.8,9-8.9,14.9-14.5,14.5C274.7,197.1,269.5,192.3,267.4,185.3z"/>
		<path class="st9" d="M195.1,197.4c0,0,22.7-18.3,18.8-52.4S181,126.6,181,126.6S168.7,160.5,195.1,197.4z"/>
		<path class="st9" d="M193.3,128c0,0,100.3,41.2,112.5,9.6S193.3,128,193.3,128z"/>
		<path class="st9" d="M212.5,131.3c0,0,101,3,117.7-23.9s-79.3-22.7-126,0.3S212.5,131.3,212.5,131.3z"/>
		<path class="st9" d="M183.5,127.9c0,0,5.2-48.6,31-43.5S183.5,127.9,183.5,127.9z"/>
		<path class="st9" d="M189.9,126.1c0,0-9.3-26.3-12.9-16.3s4.4,14.3,4.4,14.3s-11.9-3.9-10.3,4.3S189.9,126.1,189.9,126.1z"/>
		<circle class="st16" cx="236.7" cy="79.4" r="4.6"/>
		<circle class="st16" cx="349.7" cy="172.7" r="2.9"/>
		<circle class="st16" cx="144.1" cy="224.4" r="5.9"/>
		<circle class="st16" cx="131.7" cy="205.5" r="2.9"/>
		<path class="st8" d="M218.1,187.5c-1.4-4.3-0.2-9.1,3-12.3c2.9-2.8,6.8-4.5,10.8-4.7c3-0.2,6.1,0.5,8.7,2
			c4.4,2.4,6.8,7.3,5.9,12.3c-1.8,9.6-9.4,15.8-15.4,15.5C226,200,220.4,195,218.1,187.5z"/>
		
			<ellipse transform="matrix(0.1595 -0.9872 0.9872 0.1595 22.0031 388.4747)" class="st9" cx="239.2" cy="181.3" rx="10.7" ry="6.7"/>
		<path class="st22" d="M218.1,187.5c-1.4-4.3-0.2-9.1,3-12.3c2.9-2.8,6.8-4.5,10.8-4.7c3-0.2,6.1,0.5,8.7,2
			c4.4,2.4,6.8,7.3,5.9,12.3c-1.8,9.6-9.4,15.8-15.4,15.5C226,200,220.4,195,218.1,187.5z"/>
		<path class="st10" d="M221.5,169.9c4.8-3.2,10.7-4.2,16.3-2.7"/>
		<polygon class="st9" points="176.8,466.4 283.2,471.1 284.3,488.2 176.3,483.3 		"/>
		<polygon class="st16" points="187.9,466.9 187.1,489.7 192.1,489.7 192.7,467 		"/>
		<polygon class="st16" points="264.6,470.3 264.6,490.8 270.3,490.8 270.3,470.4 		"/>
		<path class="st17" d="M180.7,486.2c0,0-1.3,244.8,9.9,307.3"/>
		<polygon class="st23" points="220.6,467.2 220.6,487.1 239.4,488.2 241.5,467.9 		"/>
		<line class="st23" x1="221.3" y1="476.9" x2="232.2" y2="477.6"/>
		<polyline class="st17" points="237.3,495.1 235.5,545.5 223.2,545.5 		"/>
		<circle class="st9" cx="237.6" cy="347.7" r="30.5"/>
		<circle class="st24" cx="237.6" cy="347.7" r="26"/>
		<path class="st25" d="M250.2,348.1l-19.2,11.1v7.3l16.7-9.6c1.6-0.9,2.5-2.5,2.5-4.3L250.2,348.1L250.2,348.1z"/>
		<polygon class="st25" points="242.9,339.3 231.2,332.5 237.6,328.8 242.9,331.9 		"/>
		<polygon class="st25" points="232.1,352.4 236.7,355 232.1,357.6 		"/>
		<polygon class="st25" points="243.8,350.8 243.8,332.5 250.2,336.1 250.2,347.1 		"/>
		<path class="st25" d="M231.2,340.8v18.4l-3.9-2.2c-1.5-0.9-2.5-2.5-2.5-4.3v-8.1L231.2,340.8z"/>
		<polygon class="st25" points="236.7,336.6 224.8,343.5 224.8,336.1 230.3,333 		"/>
	</g>
</g>
<circle class="st26" cx="242.7" cy="242.7" r="217.5"/>
</svg>
