<?xml version="1.0" encoding="utf-8"?>
<!-- Generator: Adobe Illustrator 22.1.0, SVG Export Plug-In . SVG Version: 6.00 Build 0)  -->
<svg version="1.1" id="Слой_1" xmlns="http://www.w3.org/2000/svg" xmlns:xlink="http://www.w3.org/1999/xlink" x="0px" y="0px"
	 viewBox="0 0 1920 1080" style="enable-background:new 0 0 1920 1080;" xml:space="preserve">
<style type="text/css">
	.st0{fill:none;stroke:#FFFFFF;stroke-width:3;stroke-linecap:round;stroke-miterlimit:10;}
	.st1{fill:#4D9AC8;stroke:#FFFFFF;stroke-width:3;stroke-miterlimit:10;}
	.st2{fill:#FFFFFF;}
	.st3{fill:none;}
	.st4{fill:none;stroke:#FFFFFF;stroke-width:3;stroke-miterlimit:10;}
</style>
<g>
	<line class="st0" x1="251.2" y1="189.7" x2="1851.9" y2="189.7"/>
	<rect x="360.1" y="42.1" class="st1" width="280.5" height="295.2"/>
	<rect x="1098.6" y="42.1" class="st1" width="280.5" height="295.2"/>
	<line class="st0" x1="251.2" y1="589.6" x2="1851.9" y2="589.6"/>
	<rect x="1476.2" y="442" class="st1" width="280.5" height="295.2"/>
	<g>
		<rect x="720" y="442" class="st1" width="280.5" height="295.2"/>
		<ellipse class="st2" cx="860.3" cy="190.7" rx="46.6" ry="49"/>
		<line class="st0" x1="860.3" y1="442" x2="860.3" y2="190.2"/>
	</g>
	<g>
		<line class="st3" x1="1238.9" y1="337.3" x2="1238.9" y2="957.1"/>
		<g>
			<line class="st4" x1="1238.9" y1="337.3" x2="1238.9" y2="871.5"/>
			<g>
				<polygon class="st2" points="1238.9,957.1 1192,836.5 1238.9,865.1 1285.7,836.5 				"/>
			</g>
		</g>
	</g>
	<g>
		<line class="st3" x1="1616.5" y1="737.2" x2="1616.5" y2="957.1"/>
		<g>
			<line class="st4" x1="1616.5" y1="737.2" x2="1616.5" y2="871.5"/>
			<g>
				<polygon class="st2" points="1616.5,957.1 1569.7,836.5 1616.5,865.1 1663.4,836.5 				"/>
			</g>
		</g>
	</g>
	<line class="st0" x1="251.2" y1="957.1" x2="1851.9" y2="957.1"/>
	<line class="st0" x1="251.2" y1="996" x2="1851.9" y2="996"/>
	<g>
		<path class="st2" d="M68.6,175.6c1-9,3.3-17,6.8-24c3.5-7,7.9-12.1,13.1-15.5c5.1-3.4,10.9-4.9,17.2-4.8
			c8.6,0.2,15.2,3.6,19.8,10.2l2.9-8.6l16.1,0.1l-19.5,118.3h-17.8l7.3-40.2c-6.1,6.1-13,9.1-20.8,8.9c-7.8-0.1-13.9-3.2-18.4-9.1
			c-4.5-6-6.9-13.9-7.3-24c-0.2-3.3-0.1-6.5,0.2-9.7L68.6,175.6z M86.3,177.2l-0.4,5.7c-0.2,7.1,0.9,12.5,3.2,16.1
			c2.3,3.7,5.6,5.5,10,5.7c3.8,0.2,7-0.7,9.8-2.5c2.8-1.8,5.3-4.2,7.5-7.2l6.6-39c-2.6-6-7.1-9.1-13.6-9.3
			c-5.7-0.2-10.5,2.1-14.5,6.8c-4,4.7-6.7,11.4-8.1,20L86.3,177.2z"/>
		<path class="st2" d="M169.9,273.2c-5.5-0.1-9.7-2.1-12.5-6s-4.2-9.3-4.1-16.3c0-2.3,0.2-4.5,0.4-6.8l1.7-12
			c1.4-9.4,4.2-16.4,8.3-21.1c4.1-4.6,9.4-6.9,15.8-6.7c5.5,0.1,9.6,2.1,12.5,5.9s4.2,9.2,4.1,16.2c0,2.3-0.2,4.6-0.4,6.8l-1.7,11.6
			c-1.5,9.6-4.3,16.8-8.3,21.5C181.6,271.1,176.3,273.4,169.9,273.2z M185.6,231.5c0.4-3.5,0.6-6,0.6-7.4c-0.2-7-2.6-10.5-7.2-10.7
			c-3.6-0.2-6.4,1.2-8.6,4.1c-2.2,2.9-3.7,7.5-4.5,13.7l-2,14.6c-0.3,3.2-0.5,5.7-0.5,7.5c0,7.2,2.4,10.9,7.2,11.1
			c6.6,0.4,10.8-5,12.7-16.3L185.6,231.5z"/>
	</g>
	<g>
		<path class="st2" d="M69.3,573.1c1-9,3.3-17,6.8-24s7.9-12.1,13.1-15.5c5.1-3.4,10.9-4.9,17.2-4.8c8.6,0.2,15.2,3.6,19.8,10.2
			l2.9-8.6l16.1,0.1l-19.5,118.3H108l7.3-40.2c-6.1,6.1-13,9.1-20.8,8.9c-7.8-0.1-13.9-3.2-18.4-9.1s-6.9-13.9-7.3-24
			c-0.2-3.3-0.1-6.5,0.2-9.7L69.3,573.1z M86.9,574.7l-0.4,5.7c-0.2,7.1,0.9,12.5,3.2,16.1c2.3,3.6,5.6,5.5,10,5.7
			c3.8,0.2,7-0.7,9.8-2.5s5.3-4.2,7.5-7.2l6.6-39c-2.6-6-7.1-9.1-13.6-9.3c-5.7-0.2-10.5,2.1-14.5,6.8c-4,4.7-6.7,11.4-8.1,20
			L86.9,574.7z"/>
		<path class="st2" d="M177.7,669.8h-10.3l8.8-53.6l-16.1,5.6l1.6-9.9l25.2-9.4h1.6L177.7,669.8z"/>
	</g>
	<line class="st0" x1="420.1" y1="926.9" x2="314.7" y2="1037.9"/>
	<g>
		<path class="st2" d="M105.4,1004.6c4.3,0.1,8-1.2,11.3-3.9c3.3-2.7,5.4-6.3,6.3-10.6l16.8-0.1c-0.5,5.6-2.5,10.8-5.8,15.4
			c-3.3,4.6-7.6,8.2-12.8,10.8c-5.2,2.6-10.6,3.8-16.3,3.6c-7-0.1-12.9-2-17.8-5.7c-4.9-3.7-8.5-8.8-10.7-15.3s-3-13.7-2.3-21.7
			l0.2-2.7c0.8-8.2,3.2-15.8,6.9-22.5c3.7-6.7,8.5-11.9,14.4-15.5s12.4-5.3,19.7-5.1c8.8,0.2,15.8,3.3,21.1,9.2
			c5.3,5.9,7.9,13.6,7.9,23.1h-16.7c0-4.9-1.2-8.9-3.4-12c-2.3-3.1-5.6-4.8-9.9-5c-7-0.2-12.4,2.9-16.4,9.3
			c-4,6.4-6.1,15.5-6.5,27.2C91.1,997.2,95.8,1004.4,105.4,1004.6z"/>
	</g>
	<g>
		<path class="st2" d="M375.9,926.9h-55.1V917l27.3-31.3c4-4.6,6.7-8.5,8.4-11.6c1.7-3.1,2.5-6.2,2.5-9.3c0-4.1-1.1-7.4-3.3-9.9
			c-2.2-2.5-5.1-3.8-8.9-3.8c-4.4,0-7.9,1.4-10.3,4.2c-2.4,2.8-3.6,6.8-3.6,11.7h-13.7c0-5.3,1.1-10,3.4-14.2
			c2.3-4.2,5.5-7.5,9.8-9.8c4.2-2.3,9.1-3.5,14.6-3.5c8,0,14.2,2.1,18.8,6.3c4.6,4.2,6.9,10,6.9,17.4c0,4.3-1.2,8.8-3.5,13.5
			c-2.3,4.7-6.1,10.1-11.3,16.1l-20,22.6h38L375.9,926.9L375.9,926.9z"/>
	</g>
	<g>
		<path class="st2" d="M1377,890.6c0,12.4-2.2,21.7-6.6,28.1c-4.4,6.3-11.1,9.5-20.1,9.5c-8.8,0-15.5-3.1-20-9.2s-6.8-15.2-6.9-27.3
			v-14.9c0-12.4,2.2-21.7,6.6-27.9c4.4-6.2,11.1-9.3,20.2-9.3c9,0,15.6,3,20.1,9.1c4.4,6,6.7,15.1,6.8,27.1V890.6z M1363.3,874.5
			c0-8.1-1-14-3.2-17.8c-2.1-3.8-5.5-5.7-10-5.7c-4.5,0-7.8,1.8-9.8,5.4c-2.1,3.6-3.2,9.1-3.3,16.7v19.5c0,8,1.1,14.1,3.2,18
			c2.1,3.9,5.5,5.9,10.1,5.9c4.4,0,7.6-1.8,9.7-5.5c2.1-3.6,3.2-9.4,3.3-17.1L1363.3,874.5L1363.3,874.5z"/>
	</g>
	<g>
		<path class="st2" d="M1749.1,926.9h-13.6v-69.3l-20.1,7.2v-12.1l32-12.4h1.7L1749.1,926.9L1749.1,926.9z"/>
	</g>
</g>
</svg>
