<?xml version="1.0" encoding="utf-8"?>
<!-- Generator: Adobe Illustrator 22.1.0, SVG Export Plug-In . SVG Version: 6.00 Build 0)  -->
<svg version="1.1" id="Слой_1" xmlns="http://www.w3.org/2000/svg" xmlns:xlink="http://www.w3.org/1999/xlink" x="0px" y="0px"
	 viewBox="0 0 221.1 108.7" style="enable-background:new 0 0 221.1 108.7;" xml:space="preserve">
<style type="text/css">
	.st0{fill:url(#SVGID_1_);}
	.st1{fill:url(#SVGID_2_);}
	.st2{fill:none;stroke:url(#SVGID_3_);stroke-width:1.19;stroke-miterlimit:10;}
	.st3{fill:url(#SVGID_4_);}
	.st4{fill:url(#SVGID_5_);}
	.st5{fill:url(#SVGID_6_);}
	.st6{fill:url(#SVGID_7_);}
	.st7{fill:none;stroke:#FFFFFF;stroke-width:2.47;stroke-linecap:round;stroke-linejoin:round;}
</style>
<linearGradient id="SVGID_1_" gradientUnits="userSpaceOnUse" x1="28.1025" y1="189.3025" x2="193.0075" y2="24.3975" gradientTransform="matrix(1 0 0 -1 0 161.2)">
	<stop  offset="0" style="stop-color:#00FDFF"/>
	<stop  offset="4.000000e-02" style="stop-color:#22C3FF"/>
	<stop  offset="8.000000e-02" style="stop-color:#4190FF"/>
	<stop  offset="0.12" style="stop-color:#5B64FF"/>
	<stop  offset="0.16" style="stop-color:#7040FF"/>
	<stop  offset="0.2" style="stop-color:#8124FF"/>
	<stop  offset="0.24" style="stop-color:#8D10FF"/>
	<stop  offset="0.28" style="stop-color:#9404FF"/>
	<stop  offset="0.32" style="stop-color:#9600FF"/>
	<stop  offset="0.65" style="stop-color:#00FDFF"/>
	<stop  offset="0.69" style="stop-color:#22C3FF"/>
	<stop  offset="0.73" style="stop-color:#4190FF"/>
	<stop  offset="0.78" style="stop-color:#5B64FF"/>
	<stop  offset="0.82" style="stop-color:#7040FF"/>
	<stop  offset="0.87" style="stop-color:#8124FF"/>
	<stop  offset="0.91" style="stop-color:#8D10FF"/>
	<stop  offset="0.96" style="stop-color:#9404FF"/>
	<stop  offset="1" style="stop-color:#9600FF"/>
</linearGradient>
<rect class="st0" width="221.1" height="108.7"/>
<linearGradient id="SVGID_2_" gradientUnits="userSpaceOnUse" x1="33.9734" y1="183.4016" x2="187.0366" y2="30.3284" gradientTransform="matrix(1 0 0 -1 0 161.2)">
	<stop  offset="0" style="stop-color:#185E93"/>
	<stop  offset="0" style="stop-color:#185E93"/>
	<stop  offset="0.14" style="stop-color:#0F4479"/>
	<stop  offset="0.29" style="stop-color:#083164"/>
	<stop  offset="0.46" style="stop-color:#042356"/>
	<stop  offset="0.66" style="stop-color:#011A4E"/>
	<stop  offset="1" style="stop-color:#00184B"/>
</linearGradient>
<rect x="6" y="5.8" class="st1" width="209.1" height="97.1"/>
<linearGradient id="SVGID_3_" gradientUnits="userSpaceOnUse" x1="27.4066" y1="147.8684" x2="152.6632" y2="22.6118" gradientTransform="matrix(1 0 0 -1 0 161.2)">
	<stop  offset="0" style="stop-color:#00FDFF"/>
	<stop  offset="0.3" style="stop-color:#2BB5FF"/>
	<stop  offset="0.99" style="stop-color:#9502FF"/>
	<stop  offset="1" style="stop-color:#9600FF"/>
</linearGradient>
<path class="st2" d="M13.6,27.9v52.8L29.9,97h162.3l-85.3-85.3h-77C23.5,18,20,21.6,13.6,27.9z"/>
<linearGradient id="SVGID_4_" gradientUnits="userSpaceOnUse" x1="200.8814" y1="139.0938" x2="203.3114" y2="136.6738" gradientTransform="matrix(1 0 0 -1 0 161.2)">
	<stop  offset="0" style="stop-color:#00FDFF"/>
	<stop  offset="0.3" style="stop-color:#2BB5FF"/>
	<stop  offset="0.99" style="stop-color:#9502FF"/>
	<stop  offset="1" style="stop-color:#9600FF"/>
</linearGradient>
<path class="st3" d="M203.8,23.3c0,0.9-0.8,1.7-1.7,1.7c-0.9,0-1.7-0.8-1.7-1.7c0-0.9,0.8-1.7,1.7-1.7c0,0,0,0,0,0
	C203.1,21.6,203.8,22.4,203.8,23.3z"/>
<linearGradient id="SVGID_5_" gradientUnits="userSpaceOnUse" x1="200.89" y1="118.42" x2="203.32" y2="115.99" gradientTransform="matrix(1 0 0 -1 0 161.2)">
	<stop  offset="0" style="stop-color:#00FDFF"/>
	<stop  offset="0.3" style="stop-color:#2BB5FF"/>
	<stop  offset="0.99" style="stop-color:#9502FF"/>
	<stop  offset="1" style="stop-color:#9600FF"/>
</linearGradient>
<path class="st4" d="M203.8,44c0,0.9-0.8,1.7-1.7,1.7c-0.9,0-1.7-0.8-1.7-1.7c0-0.9,0.8-1.7,1.7-1.7c0,0,0,0,0,0
	C203.1,42.3,203.8,43,203.8,44z"/>
<linearGradient id="SVGID_6_" gradientUnits="userSpaceOnUse" x1="200.8915" y1="97.7315" x2="203.3215" y2="95.3015" gradientTransform="matrix(1 0 0 -1 0 161.2)">
	<stop  offset="0" style="stop-color:#00FDFF"/>
	<stop  offset="0.3" style="stop-color:#2BB5FF"/>
	<stop  offset="0.99" style="stop-color:#9502FF"/>
	<stop  offset="1" style="stop-color:#9600FF"/>
</linearGradient>
<path class="st5" d="M203.8,64.7c0,0.9-0.8,1.7-1.7,1.7c-0.9,0-1.7-0.8-1.7-1.7c0-0.9,0.8-1.7,1.7-1.7c0,0,0,0,0,0
	C203.1,63,203.8,63.7,203.8,64.7C203.8,64.7,203.8,64.7,203.8,64.7z"/>
<linearGradient id="SVGID_7_" gradientUnits="userSpaceOnUse" x1="200.89" y1="77.04" x2="203.32" y2="74.61" gradientTransform="matrix(1 0 0 -1 0 161.2)">
	<stop  offset="0" style="stop-color:#00FDFF"/>
	<stop  offset="0.3" style="stop-color:#2BB5FF"/>
	<stop  offset="0.99" style="stop-color:#9502FF"/>
	<stop  offset="1" style="stop-color:#9600FF"/>
</linearGradient>
<path class="st6" d="M203.8,85.4c0,0.9-0.8,1.7-1.7,1.7c-0.9,0-1.7-0.8-1.7-1.7c0-0.9,0.8-1.7,1.7-1.7c0,0,0,0,0,0
	C203.1,83.7,203.8,84.4,203.8,85.4z"/>
<path class="st7" d="M85.5,23.9L85.5,23.9c3,3,3,8,0,11L73.3,47.1c-3,3-7.9,3-11,0l0,0c-3-3-3-7.9,0-11l12.2-12.2
	C77.5,20.8,82.5,20.8,85.5,23.9z"/>
<path class="st7" d="M52.7,56.7L52.7,56.7c3,3,3,8,0,11L40.5,79.9c-3,3-7.9,3-11,0l0,0c-3-3-3-7.9,0-11l12.2-12.2
	C44.8,53.6,49.7,53.6,52.7,56.7z"/>
<line class="st7" x1="56.8" y1="25.2" x2="56.8" y2="30.7"/>
<line class="st7" x1="40.4" y1="33.4" x2="45.9" y2="38.8"/>
<line class="st7" x1="32.2" y1="52.5" x2="37.7" y2="52.5"/>
<line class="st7" x1="70.5" y1="63.4" x2="75.9" y2="68.9"/>
<line class="st7" x1="84.1" y1="52.5" x2="78.7" y2="52.5"/>
<line class="st7" x1="59.5" y1="71.6" x2="59.5" y2="77.1"/>
</svg>
