<?xml version="1.0" encoding="utf-8"?>
<!-- Generator: Adobe Illustrator 22.1.0, SVG Export Plug-In . SVG Version: 6.00 Build 0)  -->
<svg version="1.1" id="Слой_1" xmlns="http://www.w3.org/2000/svg" xmlns:xlink="http://www.w3.org/1999/xlink" x="0px" y="0px"
	 viewBox="0 0 116.3 103.7" style="enable-background:new 0 0 116.3 103.7;" xml:space="preserve">
<style type="text/css">
	.st0{fill:url(#SVGID_1_);}
	.st1{fill:url(#SVGID_2_);}
	.st2{fill:url(#SVGID_3_);}
	.st3{fill:url(#SVGID_4_);}
	.st4{fill:url(#SVGID_5_);}
	.st5{fill:url(#SVGID_6_);}
	.st6{fill:none;stroke:#FFFFFF;stroke-width:2;stroke-linecap:round;stroke-linejoin:round;}
</style>
<linearGradient id="SVGID_1_" gradientUnits="userSpaceOnUse" x1="3.1674" y1="108.8476" x2="113.1826" y2="-1.1577" gradientTransform="matrix(1 0 0 -1 0 105.68)">
	<stop  offset="0" style="stop-color:#00FDFF"/>
	<stop  offset="4.000000e-02" style="stop-color:#22C3FF"/>
	<stop  offset="8.000000e-02" style="stop-color:#4190FF"/>
	<stop  offset="0.12" style="stop-color:#5B64FF"/>
	<stop  offset="0.16" style="stop-color:#7040FF"/>
	<stop  offset="0.2" style="stop-color:#8124FF"/>
	<stop  offset="0.24" style="stop-color:#8D10FF"/>
	<stop  offset="0.28" style="stop-color:#9404FF"/>
	<stop  offset="0.32" style="stop-color:#9600FF"/>
	<stop  offset="0.65" style="stop-color:#00FDFF"/>
	<stop  offset="0.69" style="stop-color:#22C3FF"/>
	<stop  offset="0.73" style="stop-color:#4190FF"/>
	<stop  offset="0.78" style="stop-color:#5B64FF"/>
	<stop  offset="0.82" style="stop-color:#7040FF"/>
	<stop  offset="0.87" style="stop-color:#8124FF"/>
	<stop  offset="0.91" style="stop-color:#8D10FF"/>
	<stop  offset="0.96" style="stop-color:#9404FF"/>
	<stop  offset="1" style="stop-color:#9600FF"/>
</linearGradient>
<rect class="st0" width="116.3" height="103.7"/>
<linearGradient id="SVGID_2_" gradientUnits="userSpaceOnUse" x1="8.7675" y1="103.2175" x2="107.4925" y2="4.4925" gradientTransform="matrix(1 0 0 -1 0 105.68)">
	<stop  offset="0" style="stop-color:#185E93"/>
	<stop  offset="0" style="stop-color:#185E93"/>
	<stop  offset="0.14" style="stop-color:#0F4479"/>
	<stop  offset="0.29" style="stop-color:#083164"/>
	<stop  offset="0.46" style="stop-color:#042356"/>
	<stop  offset="0.66" style="stop-color:#011A4E"/>
	<stop  offset="1" style="stop-color:#00184B"/>
</linearGradient>
<rect x="5.7" y="5.5" class="st1" width="104.9" height="92.6"/>
<linearGradient id="SVGID_3_" gradientUnits="userSpaceOnUse" x1="95.4089" y1="84.6082" x2="97.7282" y2="82.2889" gradientTransform="matrix(1 0 0 -1 0 105.68)">
	<stop  offset="0" style="stop-color:#00FDFF"/>
	<stop  offset="0.3" style="stop-color:#2BB5FF"/>
	<stop  offset="0.99" style="stop-color:#9502FF"/>
	<stop  offset="1" style="stop-color:#9600FF"/>
</linearGradient>
<path class="st2" d="M98.2,22.2c0,0.9-0.7,1.6-1.6,1.6s-1.6-0.7-1.6-1.6s0.7-1.6,1.6-1.6l0,0C97.5,20.6,98.2,21.3,98.2,22.2z"/>
<linearGradient id="SVGID_4_" gradientUnits="userSpaceOnUse" x1="95.4103" y1="64.8796" x2="97.7297" y2="62.5603" gradientTransform="matrix(1 0 0 -1 0 105.68)">
	<stop  offset="0" style="stop-color:#00FDFF"/>
	<stop  offset="0.3" style="stop-color:#2BB5FF"/>
	<stop  offset="0.99" style="stop-color:#9502FF"/>
	<stop  offset="1" style="stop-color:#9600FF"/>
</linearGradient>
<path class="st3" d="M98.2,42c0,0.9-0.7,1.6-1.6,1.6s-1.6-0.7-1.6-1.6s0.7-1.6,1.6-1.6l0,0C97.5,40.3,98.2,41.1,98.2,42z"/>
<linearGradient id="SVGID_5_" gradientUnits="userSpaceOnUse" x1="95.4079" y1="45.1371" x2="97.7279" y2="42.8271" gradientTransform="matrix(1 0 0 -1 0 105.68)">
	<stop  offset="0" style="stop-color:#00FDFF"/>
	<stop  offset="0.3" style="stop-color:#2BB5FF"/>
	<stop  offset="0.99" style="stop-color:#9502FF"/>
	<stop  offset="1" style="stop-color:#9600FF"/>
</linearGradient>
<path class="st4" d="M98.2,61.7c0,0.9-0.7,1.6-1.6,1.6s-1.6-0.7-1.6-1.6s0.7-1.6,1.6-1.6c0,0,0,0,0,0C97.5,60.1,98.2,60.8,98.2,61.7
	z"/>
<linearGradient id="SVGID_6_" gradientUnits="userSpaceOnUse" x1="95.383" y1="25.3829" x2="97.703" y2="23.0729" gradientTransform="matrix(1 0 0 -1 0 105.68)">
	<stop  offset="0" style="stop-color:#00FDFF"/>
	<stop  offset="0.3" style="stop-color:#2BB5FF"/>
	<stop  offset="0.99" style="stop-color:#9502FF"/>
	<stop  offset="1" style="stop-color:#9600FF"/>
</linearGradient>
<path class="st5" d="M98.2,81.4c0,0.9-0.7,1.7-1.6,1.7c-0.9,0-1.7-0.7-1.7-1.6c0-0.9,0.7-1.7,1.6-1.7c0,0,0,0,0.1,0
	C97.5,79.8,98.2,80.5,98.2,81.4z"/>
<path class="st6" d="M24.6,29.7h48c1.3,0,2.3,1,2.3,2.3v29.7c0,1.3-1,2.3-2.3,2.3h-48c-1.3,0-2.3-1-2.3-2.3V32
	C22.3,30.7,23.3,29.7,24.6,29.7z"/>
<polygon class="st6" points="54.3,73.1 40.6,73.1 42.9,64 52,64 "/>
<line class="st6" x1="36" y1="73.1" x2="58.9" y2="73.1"/>
</svg>
