<?xml version="1.0" encoding="utf-8"?>
<!-- Generator: Adobe Illustrator 22.1.0, SVG Export Plug-In . SVG Version: 6.00 Build 0)  -->
<svg version="1.1" id="Слой_1" xmlns="http://www.w3.org/2000/svg" xmlns:xlink="http://www.w3.org/1999/xlink" x="0px" y="0px"
	 viewBox="0 0 780 1080" style="enable-background:new 0 0 780 1080;" xml:space="preserve">
<style type="text/css">
	.st0{fill:#CCE9ED;}
	.st1{opacity:0.5;}
	.st2{fill:url(#SVGID_1_);}
	.st3{fill:url(#SVGID_2_);}
	.st4{fill:url(#SVGID_3_);}
	.st5{fill:url(#SVGID_4_);}
	.st6{fill:url(#SVGID_5_);}
	.st7{fill:url(#SVGID_6_);}
	.st8{fill:none;stroke:#FFFFFF;stroke-width:9.3417;stroke-miterlimit:10;}
	.st9{fill:#FFFFFF;}
	.st10{fill:#FF9F8F;}
	.st11{fill:#FD7D91;}
	.st12{fill:#FFAE9E;}
	.st13{opacity:0.8;fill:url(#SVGID_7_);enable-background:new    ;}
	.st14{opacity:0.8;fill:url(#SVGID_8_);enable-background:new    ;}
	.st15{fill:none;stroke:#0A0505;stroke-width:0.7859;stroke-miterlimit:10;}
	.st16{fill:#FFF4F4;stroke:#0C0C0C;stroke-width:0.9637;stroke-miterlimit:10;}
	.st17{fill:#044784;}
	.st18{fill:none;stroke:#B5232E;stroke-width:0.7859;stroke-miterlimit:10;}
	.st19{fill:#0C0C0C;}
	.st20{fill:none;stroke:#B5232E;stroke-width:0.7148;stroke-miterlimit:10;}
	.st21{fill:#353D9C;}
	.st22{fill:#FCCBC3;}
	.st23{font-family:'MyriadPro-Regular';}
	.st24{font-size:11.5143px;}
	.st25{fill:#5DADFF;}
	.st26{fill:none;stroke:#FFFFFF;stroke-width:0.7228;stroke-miterlimit:10;}
	.st27{fill:none;stroke:#FC8D7E;stroke-width:0.7148;stroke-miterlimit:10;}
	.st28{fill:#FFD974;}
	.st29{fill:#FDE19F;}
	.st30{fill:#C98000;}
	.st31{fill:#FF9693;}
	.st32{fill:none;stroke:#FFFFFF;stroke-width:0.7859;stroke-miterlimit:10;}
	.st33{fill:none;stroke:#0C0C0C;stroke-width:0.9637;stroke-miterlimit:10;}
	.st34{fill:none;stroke:#0C0C0C;stroke-width:4.5633;stroke-miterlimit:10;}
	.st35{fill:none;stroke:#FFFFFF;stroke-width:0.8358;stroke-miterlimit:10;}
	.st36{fill:#98D3F4;}
</style>
<g>
	<ellipse class="st0" cx="376.2" cy="1020.9" rx="259.2" ry="59.1"/>
	<g>
		<g class="st1">
			
				<radialGradient id="SVGID_1_" cx="1086.9216" cy="-5642.2881" r="222.7668" gradientTransform="matrix(8.022464e-03 -1.8418 0.1136 5.357940e-04 1018.3519 2415.2249)" gradientUnits="userSpaceOnUse">
				<stop  offset="0" style="stop-color:#FFFFFF"/>
				<stop  offset="1" style="stop-color:#FFFFFF;stop-opacity:0"/>
			</radialGradient>
			<path class="st2" d="M387.9,0c13.9,0,24.5,183.8,23.5,410.5s-13,410.2-27.1,410.2c-13.9,0-24.5-183.8-23.5-410.5
				C361.8,183.7,374,0,387.9,0z"/>
			
				<radialGradient id="SVGID_2_" cx="979.2672" cy="-5882.5845" r="146.0956" gradientTransform="matrix(1.137 -1.4006 8.251677e-02 7.420747e-02 -243.1958 2206.7629)" gradientUnits="userSpaceOnUse">
				<stop  offset="0" style="stop-color:#FFFFFF"/>
				<stop  offset="1" style="stop-color:#FFFFFF;stop-opacity:0"/>
			</radialGradient>
			<path class="st3" d="M550.9,194.1c6.7,5.9-62.3,102.4-154,215.4S225.3,609.3,218.7,603.2c-6.7-5.9,62.3-102.4,154-215.4
				C464.6,274.9,544.2,188.2,550.9,194.1z"/>
			
				<radialGradient id="SVGID_3_" cx="1233.4849" cy="3892.4226" r="222.6835" gradientTransform="matrix(-1.7509 -8.438756e-03 3.820221e-04 -7.809198e-02 2548.2639 713.0773)" gradientUnits="userSpaceOnUse">
				<stop  offset="0" style="stop-color:#FFFFFF"/>
				<stop  offset="1" style="stop-color:#FFFFFF;stop-opacity:0"/>
			</radialGradient>
			<path class="st4" d="M0,396.8c0-9.6,174.7-16.6,390.1-15.6c215.5,1.1,390.1,9.6,389.9,19.2c0,9.6-174.7,16.6-390.1,15.6
				C174.6,415.1,0,406.4,0,396.8z"/>
			
				<radialGradient id="SVGID_4_" cx="924.285" cy="2785.1506" r="146.1326" gradientTransform="matrix(1.3315 1.196 -7.334824e-02 9.028129e-02 -641.4962 -958.2303)" gradientUnits="userSpaceOnUse">
				<stop  offset="0" style="stop-color:#FFFFFF"/>
				<stop  offset="1" style="stop-color:#FFFFFF;stop-opacity:0"/>
			</radialGradient>
			<path class="st5" d="M579.5,573.3c-5.9,7.3-97.8-65.1-205.2-161.6C266.8,315.4,184.5,231.3,190.4,224
				c5.9-7.3,97.8,65.1,205.2,161.6S585.2,566.2,579.5,573.3z"/>
			
				<radialGradient id="SVGID_5_" cx="752.6857" cy="-3287.2654" r="199.5539" gradientTransform="matrix(1.6315 -0.6685 3.934827e-02 0.1064 -713.4485 1247.8317)" gradientUnits="userSpaceOnUse">
				<stop  offset="0" style="stop-color:#FFFFFF"/>
				<stop  offset="1" style="stop-color:#FFFFFF;stop-opacity:0"/>
			</radialGradient>
			<path class="st6" d="M710.7,261.6c4.3,11.7-137.9,80.9-317.6,154.7C213.3,489.9,64,540.2,59.7,528.5
				c-4.3-11.7,137.9-80.9,317.6-154.7C557.1,300.2,706.4,249.9,710.7,261.6z"/>
			
				<radialGradient id="SVGID_6_" cx="1084.2771" cy="6303.3794" r="199.4134" gradientTransform="matrix(0.6356 1.7161 -0.1052 4.313142e-02 359.0814 -1737.6036)" gradientUnits="userSpaceOnUse">
				<stop  offset="0" style="stop-color:#FFFFFF"/>
				<stop  offset="1" style="stop-color:#FFFFFF;stop-opacity:0"/>
			</radialGradient>
			<path class="st7" d="M511.9,737.5c-11.6,4.7-77.8-144.7-147.8-333.8c-70-189.2-117.4-346.3-105.8-351
				c11.6-4.7,77.8,144.7,147.8,333.8C476.3,575.6,523.7,732.8,511.9,737.5z"/>
		</g>
		<g>
			<g class="st1">
				<path class="st8" d="M493.8,490.4c49.3-11.9,82-32.6,81.7-55.6c-0.4-34.9-76.5-62-170-60.7c-93.5,1.4-168.7,31.1-168.1,66
					c0.6,34.9,76.5,62,170,60.7C439,500.1,468.6,496.5,493.8,490.4"/>
				<g>
					<g>
						<path class="st9" d="M310.8,288.6c-22,23.8-5.5,102,39.6,181.2c47.8,84.3,109.8,138.1,138.4,120.1c1.7-1.1,3.2-2.3,4.6-3.8
							c22-23.9,5.5-102-39.6-181.2C406,320.6,344,266.8,315.4,284.8C313.7,285.8,312.1,287.2,310.8,288.6 M302.3,279.9L302.3,279.9
							L302.3,279.9c2.2-2.3,4.5-4.3,7-5.8c13-8.2,36.8-10.8,75.6,22.9c27.1,23.6,55.2,59.8,79.1,101.7
							c22.3,39.3,38.8,80.2,46.4,115.1c8.3,38.3,5.4,66.5-8.4,81.4c-2.2,2.3-4.5,4.3-7,5.8c-13,8.2-36.8,11-75.6-22.9
							c-27.1-23.6-55.2-59.8-79.1-101.7c-22.3-39.3-38.8-80.2-46.4-115.1C285.6,323,288.5,294.8,302.3,279.9L302.3,279.9z"/>
					</g>
				</g>
				<g>
					<g>
						<path class="st9" d="M414.7,319.3c-20.4,22.1-41.4,52.1-60,87.2C309.2,492.3,296,575.7,325,592.6
							c17.2,10.1,45.4-5.3,74.9-37.3c20.4-22.1,41.4-52.1,60-87.2c45.5-85.8,58.8-169.2,29.7-186.1
							C472.4,272,444.3,287.3,414.7,319.3 M406.2,310.7l8.5,8.7L406.2,310.7c35.5-38.4,67.1-52.6,89.3-39.6
							c13.3,7.8,27.4,28,19,80.3c-5.8,36.6-21.4,80.2-44.2,122.8c-18.6,34.9-39.8,66-61.9,89.8c-35.5,38.4-67.1,52.6-89.3,39.6
							c-13.3-7.8-27.4-28-19-80.3c5.8-36.6,21.4-80.2,44.2-122.8C362.8,365.5,384.3,334.4,406.2,310.7L406.2,310.7z"/>
					</g>
				</g>
			</g>
			<g>
				<path class="st10" d="M348.2,232.2c-2.9,2.3-9.9,7-18.3,5.8c-15.9-2.3-27.4-25.2-21.4-37.9c2.9-6.1,10.4-11.4,16.4-11.4
					c0.9,0,2.8,0,5.1,0.5c2.9,0.6,5.5,0.9,8.3,2.9c1,0.6,2.3,1.8,3.6,3.8C344,207.9,346,220,348.2,232.2z"/>
				<path class="st11" d="M404.6,324.8c0-16.8,0-33.5,0-50.4c-2.6,0.9-5.4,1.7-8.3,2.4c-4.2,1.1-8.1,1.7-11.7,2.3
					c0.6,15.2,1,30.5,1.6,45.7c2,0.9,5.5,2.1,10.1,2C399.8,326.5,402.7,325.6,404.6,324.8z"/>
				<path class="st12" d="M404.6,344.5c0-16.9,0-33.8,0-50.9c-2.5,6.3-8,9.6-12.7,8.7c-3.6-0.8-5.8-3.8-6.4-4.7
					c0.3,15.4,0.6,30.6,0.9,46c1.2,0.6,2.8,1.4,4.8,1.8c0.4,0.1,2.9,0.8,6.1,0.6C398.9,345.9,401.5,345.6,404.6,344.5z"/>
				<path class="st11" d="M334.1,218.6c-5.8-5-11.4-10.1-17.2-15.2c-2.8,3.2-1.9,7.9,2,11.4C323,218.6,329.4,220.1,334.1,218.6z"/>
				<path class="st12" d="M442.4,244.2c-2.8,7.2-9.9,22.9-25.9,34.1c-3.8,2.6-33,23.2-59.3,7.6c-19.1-11.3-23.8-33.8-24.6-38.4
					c-3-11.4-4.1-22.4-3.2-33.1l0,0l0,0l0,0c1.3-12.8,5.2-22.6,8.3-28.8c0-7,1-17.7,5.5-29.7c1.5-4.1,9.1-24.4,25.5-35.5
					c25.5-17.4,72.7-12.8,89.4,20.1c15.1,29.7-4.3,63.4-5.5,65.2c1.7-1.2,6.8-4.4,13.6-3.8c7.2,0.8,13.6,5.5,16.4,11.4
					c6.1,13.4-6.1,32.2-18.3,36.4c-5.1,1.8-10,0.9-10,0.9C447.9,249.9,443.8,245.9,442.4,244.2z"/>
				
					<radialGradient id="SVGID_7_" cx="-682.9323" cy="838.9562" r="18.2492" gradientTransform="matrix(-1.1431 0 0 -1.1694 -365.6195 1208.9186)" gradientUnits="userSpaceOnUse">
					<stop  offset="0" style="stop-color:#F78B7C"/>
					<stop  offset="0.3684" style="stop-color:#F88E7F;stop-opacity:0.6316"/>
					<stop  offset="0.6671" style="stop-color:#FA9889;stop-opacity:0.3329"/>
					<stop  offset="0.9405" style="stop-color:#FEA999;stop-opacity:5.950000e-02"/>
					<stop  offset="1" style="stop-color:#FFAE9E;stop-opacity:0"/>
				</radialGradient>
				<path class="st13" d="M418,207.2l-6.8,0.1c-11.4,0.3-19.9,11.3-17.1,22.7c2.3,10.2,8.3,20,22.3,18.6
					c13.9-1.4,18.7-11.1,19.9-20.9C437.6,216.5,428.9,206.9,418,207.2z"/>
				
					<radialGradient id="SVGID_8_" cx="-937.716" cy="888.0201" r="18.2434" gradientTransform="matrix(-0.9459 0 0 -1.0131 -540.4034 1121.8715)" gradientUnits="userSpaceOnUse">
					<stop  offset="0" style="stop-color:#F78B7C"/>
					<stop  offset="0.3684" style="stop-color:#F88E7F;stop-opacity:0.6316"/>
					<stop  offset="0.6671" style="stop-color:#FA9889;stop-opacity:0.3329"/>
					<stop  offset="0.9405" style="stop-color:#FEA999;stop-opacity:5.950000e-02"/>
					<stop  offset="1" style="stop-color:#FFAE9E;stop-opacity:0"/>
				</radialGradient>
				<path class="st14" d="M349.2,204.3l-5.5,0.1c-9.4,0.1-16.4,9.8-14.2,19.7c1.9,8.8,6.8,17.2,18.6,16.2
					c11.6-1.1,15.5-9.6,16.4-18.1C365.3,212.5,358.2,204.1,349.2,204.3z"/>
				<path class="st15" d="M387.6,341.2"/>
				<path class="st16" d="M367.3,203.2c1.5-4.7,0.3-9.9-3.2-13.4c-3-3.1-7-4.9-11.3-5.2c-3.6-0.1-6.7,0.8-9.1,2.1
					c-4.6,2.6-7.1,8.1-6.1,13.6c2,10.5,9.9,17.4,16.1,16.9C359.2,217.1,365,211.4,367.3,203.2z"/>
				
					<ellipse transform="matrix(0.9891 -0.1471 0.1471 0.9891 -25.7156 52.8924)" class="st17" cx="344.7" cy="200.3" rx="7" ry="11.7"/>
				<path class="st18" d="M379.3,202.9c0.1,4.4-0.3,9.6-3.6,13.4c-2.9,3.2-6.4,3.8-6.4,5.8c0,1.4,1.7,3.3,9.1,5.8"/>
				<path class="st19" d="M422.5,174.9c0.6-2-2.5-5.2-9.3-9.8c-6.7-3.2-12.6-0.9-13.8,2.4c-0.3,1.1-0.3,2.3,0.1,3.3
					c1,3.1,3.8,5.2,6.8,5.5C416.4,177.6,421.8,177,422.5,174.9z"/>
				<path class="st19" d="M346.5,173.9c-0.4-1.5,1.9-4.1,7.1-7.6c5.1-2.6,9.7-0.8,10.6,2c0.3,0.8,0.3,1.7,0,2.6
					c-0.7,2.4-3,4.3-5.5,4.4C351.1,176.1,347,175.6,346.5,173.9z"/>
				<path class="st20" d="M361.5,245.3c2.3,2,11,8.5,22.7,7c11.9-1.5,18.8-10.5,20.7-13c-1.7-2.3-2.6-3.5-2.6-3.5s1.7,2,5.2,6.1"/>
				<path class="st10" d="M442.8,245.6c2.9,2.3,9.9,7,18.3,5.8c15.9-2.3,27.4-25.2,21.4-37.9c-2.9-6.1-10.4-11.4-16.4-11.4
					c-0.9,0-2.8,0-5.1,0.5c-2.9,0.6-5.5,0.9-8.3,2.9c-1,0.6-2.3,1.8-3.6,3.8C447,221.3,445,233.5,442.8,245.6z"/>
				<path class="st11" d="M445.6,230.5c8.3-4.3,16.5-8.4,24.8-12.6c2.2,5-0.3,10.7-5.9,13.6C458.6,234.3,450.8,234,445.6,230.5z"/>
				<path class="st17" d="M337.5,185.7c1.6-8.1,3.3-14.6,5.1-18.8c2.6-6.3,4.1-9.4,7.2-12.5c1-0.9,2-1.5,1.9-2
					c-0.3-0.9-7.2-0.1-11.9,4.7c-0.3,0.3-0.4,0.6-0.7,0.8c-2.5,3.1-3.5,7.2-3.2,11.1C336.5,174.7,337,180.3,337.5,185.7z"/>
				<path class="st21" d="M405.7,200.5"/>
				<path class="st11" d="M509.6,641.4c-1-0.6-4.9-2.9-7.4-2c-3.8,1.4-2.3,16.5,5.5,23.3c0.7,0.6,1.3,1.1,1.9,1.4
					c0.4,0.6,0.7,1.1,1.2,1.7c-2.2,0.9-10.4,4.9-13,13.7c-1,3.5-1.5,9,0.1,9.3c2.5,0.5,8.7-7.9,11.6-12.6c1.7-2.7,2.8-4.9,3-4.9
					c0.4,0.1-0.9,4.1-2.3,7.5c-1.3,2.9-3.8,9-3.9,10.2c-1.9,2.7-1,6.4,1,7.6c1.5,0.9,3.6,0.6,5.4-0.8c1.5-2.7,3.3-6.6,4.2-11.4
					c0.7-3.5,0.7-6.3,0.6-7.8C517,647.7,513.5,643.7,509.6,641.4z"/>
				<path class="st12" d="M490.5,605.8c0.4,6.7,3.2,49.8,9.1,57.6c0.9,1.1,2.8,3.7,5.2,3.5c2-0.1,3.9-1.8,4.6-3.8
					c0.7-2-0.1-4.3-1.9-8.7c-0.7-1.7-2.3-5.6-3.6-10.5c-0.3-1.1-0.6-2.3,0-2.9c0.9-0.9,3.2-0.1,4.6,0.9c2.8,2,3.3,5.8,3.6,7.6
					c1,6.3,2.2,13.4,3.3,21.5c2.2,13.1,4.2,23.2,5.4,27.4c0.3,1.2,1.2,4,3.2,4.9c1,0.5,2.2,0.5,2.8,0.1c3.9-1.5,1-24.1-5.5-53.2
					c-2.8-12.5-5.7-22.9-7.7-29.6c-2.3-14.3-2.5-17.8-3.2-20.1c-0.9-2.9-3.2,1.8-7.1,3.3C498.2,605.9,493.7,605.9,490.5,605.8z"/>
				<path class="st22" d="M504,657.3c1.5-0.1,3,0.9,3.9,2.9c0.1,0.3,0.1,0.8,0.1,1.1c0,0.6-0.3,1.5-0.9,2.3c-1,1.1-2.5,1.1-2.8,0.9
					c-1.6-0.1-3-1.7-3.2-3.3c-0.1-1.5,0.7-2.6,0.9-2.9C502.9,657.4,503.7,657.3,504,657.3z"/>
				<path class="st22" d="M527.6,693.7c-0.4-0.1-0.9,0-0.9,0c-2,0.9-2.2,7.9-0.4,8.7c0.4,0.1,0.7,0,0.9-0.1c1.2-0.6,1.3-2.6,1.5-4
					C528.7,697.2,528.9,694.3,527.6,693.7z"/>
				<text transform="matrix(-0.9507 0 0 1 415.0713 402.7827)" class="st23 st24">L</text>
				<text transform="matrix(-0.9507 0 0 1 410.0547 402.7827)" class="st23 st24">o</text>
				<text transform="matrix(-0.9507 0 0 1 404.0449 402.7827)" class="st23 st24">r</text>
				<text transform="matrix(-0.9507 0 0 1 400.583 402.7827)" class="st23 st24">em ipsum</text>
				<path class="st12" d="M412.7,913.5c-2.8,23.3-5.5,46.6-8.3,70.1c7.2,0.3,14.6,0.6,21.9,0.9c3.6-22.4,7.2-44.8,10.9-67.2
					L412.7,913.5z"/>
				<path class="st12" d="M376.2,905.7c-3.3,25.9-6.7,51.8-10,77.7c-7.5,2-15.2,3.8-22.7,5.8c3-26.8,6.1-53.6,9.1-80.6
					C360.4,907.7,368.3,906.8,376.2,905.7z"/>
				<path class="st12" d="M491.2,612.1c-7.2-33.1-14.5-66.5-21.4-100.3c-6.1-29.6-12-58.7-17.8-87.8c5.8-4.7,11.6-9.6,17.4-14.3
					c14.5,65.8,20.1,90.7,21.4,95.4c0.3,1.1,19.3,80.8,20.6,100.3c0.1,2.4,0.4,6.7,0.4,12c-3.2-6.3-8.8-9.9-14.1-9
					C494.5,608.9,492.2,610.9,491.2,612.1z"/>
				<path class="st25" d="M467.9,530.2c0,0,9.4,244.8-5.7,389.7l-57.7-1.5l15.4-281.8l-20.3-0.5l-9.3,284l-61.1-1.5l20.7-380.9
					L467.9,530.2z"/>
				<path class="st11" d="M471.5,419.8c-0.4-0.5-3,1.7-8.7,5.3c-4.2,2.6-7.7,4.6-10,5.8c0.6,2.6,1.2,5.2,1.9,7.6
					c2.3-1.5,5.7-4.1,9.1-7.6C468.2,426.4,472.2,420.6,471.5,419.8z"/>
				<line class="st26" x1="353.4" y1="560.3" x2="336" y2="913.5"/>
				<g>
					<path class="st12" d="M327.8,601.2c3,1.7,4.8,4.6,5.5,6.1c7.4,16.2,10.7,25.3,12.3,30.9c1,3.3,1.6,6.3,3.5,10.5
						c3,6.7,5.7,8.8,4.8,11c-1,2.6-7,3.3-10.7,0.8c-4.5-3.1-5.7-10.2-6.5-15.6c-0.7-4.9-3.2-8.7-3.8-7.8c-0.3,0.9-0.4,1.8-0.7,2.7
						c0.6,11.7,1.9,21.2,3,27.9c0,0,2.5,14.2,1.9,28.8c-0.1,3.2-0.6,9.3-3.6,10.5c-0.1,0-0.7,0.3-1.2,0.3c-5.9-0.6-6.7-52-6.5-52.1
						c0.1,0,0.1,10.1,2.3,28.3c0.3,2.7,1.3,10.8-1,20.6c-0.7,2.9-1.7,7.6-3.6,7.6c-2.5,0.1-4.8-8.1-5.5-10.5
						c-2.2-7.3-2.6-9.3-2.5-9.3s1.7,3.1,1.5,6.4c-0.3,2.7-1.7,5.8-2.8,5.8c-1.3,0-2.8-5-3.8-24.8l-0.7-15.1c0.7-20,2-41.1,2.6-61.1
						C317.2,598.7,323,598.6,327.8,601.2z"/>
					<path class="st12" d="M333.4,611.1c3.2-33.1,7.1-66.9,11.6-101.7c3.9-30.6,8.3-60.7,12.7-89.8c-7.4-2.7-14.9-5.6-22.3-8.4
						c-2.5,22-6.5,54.4-12,93.9c-2.2,15.8-15.9,112.6-9.3,114c1.9,0.5,5.8-10.5,13-10.5C328.5,608.5,330.7,608.8,333.4,611.1z"/>
					<path class="st11" d="M333.4,426c0.7-0.8,3.6,2.1,10.7,5.3c4.5,2.1,8.4,3.3,11.2,4.3c-0.3,2.6-0.6,5.2-0.9,7.6
						c-2.8-0.1-7.4-0.8-11.9-3.8C335.9,435,332.3,427.1,333.4,426z"/>
					<path class="st22" d="M353,660c-0.9,1.4-3.2,1.2-4.1,1.1c-3.8-1.7-5.4-4.9-4.6-6.7c0.6-1.5,2.9-2.3,4.6-2
						C352.2,653.1,354.3,658,353,660z"/>
					<path class="st22" d="M332.4,706.2c-0.3,0.1-0.9,0.3-1.9,0c-1.6-3.8-2-6.9-0.9-7.6c0.7-0.5,1.7,0,1.9,0
						C333.8,699.6,334.1,705.1,332.4,706.2z"/>
					<path class="st22" d="M323.9,711.1c-0.3,0.6-1,0.9-1.6,0.8c-1.6-0.1-2.5-2.9-2.8-4c-0.3-0.9-0.9-2.7-0.3-3.1
						C320.1,704.4,324.7,709.2,323.9,711.1z"/>
					<path class="st22" d="M314.3,702.5c-0.3,0.3-0.9,0.1-1.3,0c-1-0.6-0.7-2.3-0.6-3.1c0-0.6,0.3-1.8,0.6-1.8
						C313.9,697.5,315.4,701.6,314.3,702.5z"/>
					<path class="st27" d="M327.9,694.9c-1.7-5.9-3.3-11.9-4.1-18c-0.7-6.1-0.7-12.5,1-18.3"/>
					<path class="st27" d="M320.9,704.2c-2.2-8.4-5.8-25.5-3-43.3"/>
					<path class="st27" d="M315.9,696.9c-3.2-11.6-3.8-23.8-2-35.5"/>
					<path class="st22" d="M324.6,711.7c-0.3,0.1-0.9,0.3-1.9,0c-1.6-3.8-2-6.9-0.9-7.6c0.7-0.5,1.7,0,1.9,0
						C326,705.3,326.3,710.6,324.6,711.7z"/>
				</g>
				<path class="st28" d="M409.1,317.5c14.2,12.2,29.6,26.4,45.1,42.8c14.1,14.9,26.4,29.6,37.1,43.4c-6.5,5.2-13.2,10.4-20,15.4
					c-6.5,4.9-12.9,9.6-19.1,14.3c-2.9-11.9-5.5-22.1-5.5-22.1l0,0c0.3,0.9,0.6,2,0.9,2.9c4.6,17.4,9,36,12.7,55.6
					c5.1,25.9,8.5,38.7,10.9,61.4c0,0-40.4,1.8-121.3,5.8c0.4-12.2,1-13.1,1.9-25.9c2.2-33.2,5.7-64.6,10-94c0,0-0.4,3.7-0.9,6.7
					c-0.7,5.5-1.3,10.2-1.9,14.3c-14.8-7-29.4-14-44.2-21c7.1-15.1,15.9-31.7,26.9-49.1c12.9-20.4,26.1-37.5,38.3-51.8
					c2.5,5.9,8,9.9,14.1,10.2C400.2,327.1,406.2,323.5,409.1,317.5z"/>
				<path class="st29" d="M449.8,424.1c0.7,3.2,1.5,6.4,2.2,9.8c7.4-4.9,14.9-10.2,22.7-16.3c5.8-4.6,11.3-9,16.4-13.4
					c-1.9-2.3-3.6-4.4-5.5-6.7C473.7,406.1,461.8,415.1,449.8,424.1z"/>
				<path class="st29" d="M317.9,409.7c-1.2,2.6-2.5,5.2-3.6,7.6c8.3,4.3,16.7,8.4,25.5,12.5c6.5,3.1,12.9,5.9,19.1,8.7
					c0.9-2.9,1.9-5.8,2.8-8.7C347,423.2,332.4,416.4,317.9,409.7z"/>
				<path class="st29" d="M404.6,311.9c-0.9,4.6-4.3,8.1-8.3,8.7c-4.9,0.6-10.1-3.5-10.9-9.6c-1.9,2-3.6,3.8-5.5,5.8
					c0.3,1.4,1.7,6.3,6.4,9.6c6.1,4.3,12.7,2.3,13.6,2c7-2.3,9.7-8.7,10-9.6C408.2,316.3,406.3,314,404.6,311.9z"/>
				<path class="st30" d="M392.7,338.7"/>
				<path class="st31" d="M463,435.7"/>
				<path class="st31" d="M495.7,526.8"/>
				<path class="st29" d="M470.2,523c-18.1,2.7-38.3,4.9-60.1,5.8c-21.4,0.8-41.4,0.3-59.3-0.9c-0.4,1.5-0.7,3.5-0.9,5.8
					c-0.1,1.4,0,2.7,0,3.8c20.6-0.3,41.9-0.8,63.9-2c19.7-0.9,38.8-2.3,57.5-3.8C470.8,528.6,470.5,525.9,470.2,523z"/>
				<polygon class="st17" points="436.4,958.6 420.9,982.5 404.6,982.5 399.9,1012.2 486.6,1012.2 430.9,985.4 				"/>
				<polygon class="st17" points="334.3,959.5 349.8,983.4 366.2,983.4 370.8,1013.3 284.1,1013.3 339.8,986.3 				"/>
				<polygon class="st25" points="458.6,998.8 445.6,1010.4 400.2,1010.4 398.2,1013.3 487.4,1013.3 489.3,1013.3 				"/>
				<polygon class="st25" points="312.1,999.8 325.2,1011.3 370.5,1011.3 372.5,1014.2 283.1,1014.2 281.4,1014.2 				"/>
				<g>
					<line class="st32" x1="434.6" y1="986.3" x2="429.2" y2="993"/>
					<line class="st32" x1="438.3" y1="988.3" x2="432.8" y2="995"/>
					<line class="st32" x1="441.9" y1="990.1" x2="436.4" y2="997"/>
				</g>
				<g>
					<line class="st32" x1="336" y1="987.4" x2="341.5" y2="994.1"/>
					<line class="st32" x1="332.4" y1="989.2" x2="337.9" y2="995.9"/>
					<line class="st32" x1="328.8" y1="991.2" x2="334.3" y2="997.9"/>
				</g>
				<path class="st18" d="M365.1,183.7c0,0-7.7-6.1-18.1-3.2"/>
				<path class="st33" d="M367.3,203.2c1.5-4.7,0.3-9.9-3.2-13.4c-3-3.1-7-4.9-11.3-5.2c-3.6-0.1-6.7,0.8-9.1,2.1
					c-4.6,2.6-7.1,8.1-6.1,13.6c2,10.5,9.9,17.4,16.1,16.9C359.2,217.1,365,211.4,367.3,203.2z"/>
				<g>
					<path class="st17" d="M447.7,217.4c0,0-25.2-21.3-20.9-61.3s36.5-21.5,36.5-21.5S477,174.3,447.7,217.4z"/>
					<path class="st17" d="M449.8,136.3c0,0-111.4,48.2-125,11.3C311.2,110.5,449.8,136.3,449.8,136.3z"/>
					<path class="st17" d="M428.3,140.1c0,0-112.3,3.5-130.8-27.9c-18.6-31.4,88.1-26.5,140,0.3
						C489.2,139.5,428.3,140.1,428.3,140.1z"/>
					<path class="st17" d="M460.6,136.1c0,0-5.8-56.8-34.5-50.9C397.5,91.2,460.6,136.1,460.6,136.1z"/>
					<path class="st17" d="M453.5,134c0,0,10.3-30.8,14.4-19s-4.9,16.8-4.9,16.8s13.2-4.6,11.4,5C472.8,146.2,453.5,134,453.5,134z"
						/>
				</g>
				<ellipse class="st25" cx="401.5" cy="79.4" rx="5.1" ry="5.3"/>
				<ellipse class="st25" cx="275.9" cy="188.6" rx="3.2" ry="3.3"/>
				<ellipse class="st25" cx="504.4" cy="248.9" rx="6.5" ry="6.9"/>
				<ellipse class="st25" cx="518.2" cy="226.8" rx="3.2" ry="3.3"/>
				<path class="st16" d="M422.1,205.8c1.5-5,0.3-10.7-3.3-14.3c-3.2-3.2-7.4-5.2-12-5.5c-3.9-0.3-7.1,0.8-9.7,2.3
					c-4.9,2.7-7.5,8.5-6.5,14.3c2,11.3,10.4,18.4,17.1,18.1C413.4,220.4,419.6,214.6,422.1,205.8z"/>
				
					<ellipse transform="matrix(0.9891 -0.1472 0.1472 0.9891 -25.4828 60.7896)" class="st17" cx="398.1" cy="202.6" rx="7.4" ry="12.5"/>
				<path class="st33" d="M422.1,205.8c1.5-5,0.3-10.7-3.3-14.3c-3.2-3.2-7.4-5.2-12-5.5c-3.9-0.3-7.1,0.8-9.7,2.3
					c-4.9,2.7-7.5,8.5-6.5,14.3c2,11.3,10.4,18.4,17.1,18.1C413.4,220.4,419.6,214.6,422.1,205.8z"/>
				<path class="st18" d="M418.3,185.2c0,0-7.7-6.1-18.1-3.2"/>
				<polygon class="st17" points="468,531.8 349.8,537.3 348.6,557.3 468.6,551.6 				"/>
				<polygon class="st25" points="455.7,532.4 456.6,559.1 451.1,559.1 450.4,532.6 				"/>
				<polygon class="st25" points="370.5,536.4 370.5,560.3 364.1,560.3 364.1,536.5 				"/>
				<path class="st26" d="M463.7,555c0,0,1.5,286.1-11,359.2"/>
				<polygon class="st34" points="419.3,532.7 419.3,556.1 398.5,557.3 396.2,533.7 				"/>
				<line class="st34" x1="418.6" y1="544.2" x2="406.4" y2="544.9"/>
				<polyline class="st26" points="400.8,565.4 402.8,624.3 416.4,624.3 				"/>
				<ellipse class="st17" cx="400.5" cy="393.1" rx="33.9" ry="35.7"/>
				<ellipse class="st35" cx="400.5" cy="393.1" rx="28.8" ry="30.3"/>
				<rect x="281.4" y="1014.2" class="st19" width="91.3" height="6.7"/>
				<rect x="398.2" y="1013.3" class="st19" width="91.3" height="6.7"/>
			</g>
			<g>
				<path class="st36" d="M386.5,393.6l21.3,13v8.5l-18.6-11.3c-1.7-1.1-2.8-2.9-2.8-5V393.6L386.5,393.6z"/>
				<g>
					<polygon class="st36" points="394.6,383.2 407.6,375.3 400.5,371 394.6,374.7 					"/>
				</g>
				<g>
					<polygon class="st36" points="406.6,398.6 401.5,401.7 406.6,404.7 					"/>
				</g>
				<g>
					<polygon class="st36" points="393.5,396.8 393.5,375.3 386.5,379.6 386.5,392.4 					"/>
				</g>
				<g>
					<path class="st36" d="M407.6,385v21.5l4.3-2.6c1.7-1.1,2.8-2.9,2.8-5v-9.4L407.6,385z"/>
				</g>
				<g>
					<polygon class="st36" points="401.5,380.2 414.7,388.2 414.7,379.6 408.6,375.9 					"/>
				</g>
			</g>
		</g>
	</g>
</g>
</svg>
